<?xml version="1.0" encoding="utf-8"?>
<!-- Generator: Adobe Illustrator 16.0.0, SVG Export Plug-In . SVG Version: 6.00 Build 0)  -->
<!DOCTYPE svg PUBLIC "-//W3C//DTD SVG 1.1//EN" "http://www.w3.org/Graphics/SVG/1.1/DTD/svg11.dtd">
<svg version="1.1" id="Capa_1" xmlns="http://www.w3.org/2000/svg" xmlns:xlink="http://www.w3.org/1999/xlink" x="0px" y="0px"
	 width="1445.67px" height="841.89px" viewBox="0 0 1445.67 841.89" enable-background="new 0 0 1445.67 841.89"
	 xml:space="preserve">
<rect x="301.835" y="123.445" fill="#359C89" width="842" height="595"/>
<path d="M848.654,721.004"/>
<g>
	<path fill="#E6D093" d="M712.181,214.468c5.86-6.57,15.448-6.57,21.309,0c5.859,6.57,16.455,7.689,23.547,2.487
		c7.09-5.202,16.47-3.197,20.843,4.454c4.373,7.651,14.506,10.961,22.517,7.355c8.013-3.606,16.772,0.314,19.467,8.712
		c2.695,8.398,11.922,13.753,20.504,11.9c8.583-1.853,16.341,3.813,17.24,12.59c0.898,8.778,8.816,15.944,17.595,15.925
		c8.778-0.019,15.193,7.145,14.258,15.919c-0.936,8.773,5.326,17.438,13.917,19.254c8.59,1.816,13.385,10.164,10.654,18.55
		c-2.73,8.387,1.603,18.171,9.63,21.743c8.027,3.572,10.99,12.74,6.584,20.372c-4.404,7.632-2.189,18.108,4.924,23.28
		c7.112,5.171,8.114,14.758,2.227,21.303c-5.888,6.545-5.888,17.255,0,23.8c5.888,6.546,4.886,16.131-2.227,21.303
		c-7.113,5.172-9.328,15.647-4.924,23.28c4.406,7.632,1.443,16.8-6.584,20.372c-8.027,3.571-12.36,13.355-9.63,21.742
		s-2.064,16.734-10.654,18.551c-8.591,1.815-14.853,10.48-13.917,19.254c0.936,8.775-5.479,15.938-14.258,15.919
		s-16.696,7.147-17.595,15.925c-0.899,8.778-8.657,14.444-17.24,12.591c-8.582-1.854-17.809,3.503-20.504,11.9
		c-2.694,8.397-11.454,12.318-19.467,8.712c-8.011-3.606-18.144-0.296-22.517,7.355c-4.373,7.65-13.753,9.655-20.843,4.453
		c-7.092-5.201-17.688-4.083-23.547,2.487c-5.86,6.571-15.449,6.571-21.309,0c-5.86-6.57-16.456-7.688-23.546-2.487
		c-7.091,5.202-16.47,3.197-20.843-4.453c-4.374-7.651-14.506-10.962-22.518-7.355c-8.012,3.606-16.772-0.314-19.467-8.712
		s-11.922-13.754-20.504-11.9c-8.583,1.854-16.34-3.812-17.24-12.591c-0.899-8.777-8.816-15.943-17.595-15.925
		c-8.779,0.019-15.194-7.144-14.258-15.919c0.936-8.773-5.326-17.438-13.917-19.254c-8.59-1.816-13.385-10.164-10.654-18.551
		c2.73-8.387-1.603-18.171-9.63-21.742c-8.027-3.572-10.99-12.74-6.584-20.372c4.405-7.633,2.19-18.108-4.923-23.28
		c-7.112-5.172-8.115-14.757-2.227-21.303c5.888-6.545,5.888-17.255,0-23.8c-5.888-6.545-4.885-16.131,2.227-21.303
		c7.113-5.171,9.328-15.647,4.923-23.28c-4.406-7.632-1.442-16.8,6.584-20.372c8.027-3.572,12.36-13.356,9.63-21.743
		c-2.73-8.386,2.064-16.734,10.654-18.55s14.853-10.481,13.917-19.254c-0.936-8.774,5.479-15.938,14.258-15.919
		c8.778,0.019,16.696-7.147,17.595-15.925c0.899-8.778,8.657-14.443,17.24-12.59c8.582,1.853,17.809-3.502,20.504-11.9
		s11.455-12.319,19.467-8.712c8.011,3.606,18.144,0.296,22.518-7.355c4.373-7.651,13.752-9.655,20.843-4.454
		C695.725,222.158,706.321,221.038,712.181,214.468z"/>
	
		<ellipse fill="none" stroke="#003B60" stroke-width="5" stroke-miterlimit="10" cx="726.379" cy="431.976" rx="182.237" ry="186.842"/>
	
		<ellipse fill="none" stroke="#003B60" stroke-width="15" stroke-linecap="round" stroke-miterlimit="10" stroke-dasharray="0,25,0,25" cx="728" cy="434" rx="161" ry="165"/>
</g>
<path fill="none" d="M577.016,453.978c1.489-69.873,67.979-125.132,148.512-123.416c80.539,1.713,144.621,59.745,143.137,129.622
	c-1.488,69.874-81.32,127.919-161.855,126.206C640.728,584.983,575.231,537.907,577.016,453.978z"/>
<text transform="matrix(1.0717 -0.2074 0.19 0.9818 679.7119 335.561)" font-family="'DINCondensed-Bold'" font-size="48">S</text>
<text transform="matrix(1.0862 -0.1077 0.0987 0.9951 699.9043 331.8701)" font-family="'DINCondensed-Bold'" font-size="48">I</text>
<text transform="matrix(1.0915 -0.0032 0.0029 1 709.751 330.5562)" font-family="'DINCondensed-Bold'" font-size="48">N</text>
<text transform="matrix(1.0834 0.133 -0.1219 0.9925 732.0156 330.4844)" font-family="'DINCondensed-Bold'" font-size="48">C</text>
<text transform="matrix(1.0604 0.2589 -0.2372 0.9715 752.2539 332.9663)" font-family="'DINCondensed-Bold'" font-size="48">E</text>
<path fill="none" d="M792.674,565.77c73.77-35.579,102.304-129.257,63.734-209.238c-38.569-79.982-129.646-115.984-203.417-80.413
	c-73.769,35.575-102.301,129.254-63.729,209.241C627.83,565.343,718.904,601.344,792.674,565.77z"/>
<text transform="matrix(0.8115 0.6292 -0.6127 0.7903 630.0444 539.9277)" font-family="'DINCondensed-Bold'" font-size="48">O</text>
<text transform="matrix(0.8903 0.5117 -0.4983 0.867 649.1162 554.3477)" font-family="'DINCondensed-Bold'" font-size="48">L</text>
<text transform="matrix(0.9539 0.3801 -0.3702 0.9289 667.6113 564.8535)" font-family="'DINCondensed-Bold'" font-size="48">D</text>
<text transform="matrix(0.9907 0.2699 -0.2629 0.9648 689.4722 573.0645)" font-family="'DINCondensed-Bold'" font-size="48"> </text>
<text transform="matrix(1.0149 0.156 -0.1519 0.9884 700.6074 576.2803)" font-family="'DINCondensed-Bold'" font-size="48">S</text>
<text transform="matrix(1.0268 -0.0101 0.0099 1 723.8198 579.5801)" font-family="'DINCondensed-Bold'" font-size="48">C</text>
<text transform="matrix(1.0097 -0.187 0.1821 0.9833 747.5645 579.0752)" font-family="'DINCondensed-Bold'" font-size="48">H</text>
<text transform="matrix(0.9598 -0.365 0.3554 0.9347 771.9121 574.2129)" font-family="'DINCondensed-Bold'" font-size="48">O</text>
<text transform="matrix(0.8798 -0.5295 0.5156 0.8568 794.9443 565.0957)" font-family="'DINCondensed-Bold'" font-size="48">O</text>
<text transform="matrix(0.7786 -0.6694 0.6519 0.7583 815.7676 552.0771)" font-family="'DINCondensed-Bold'" font-size="48">L</text>
<text transform="matrix(1 0 0 1 683.4834 522)" fill="#BF0411" font-family="'DINCondensed-Bold'" font-size="21">IES LA PINEDA</text>
<path d="M30,678"/>
<g>
	<rect x="647.621" y="457.829" fill="#003B60" width="160.964" height="27.872"/>
	<polygon fill="#003B60" points="639.23,473.867 591.257,474.088 617.137,457.388 591.257,446.217 656.273,445.995 639.23,457.939 	
		"/>
	<polygon fill="#003B60" points="814.082,473.867 862.055,474.088 836.174,457.388 862.055,446.217 797.036,445.995 
		814.082,457.939 	"/>
	<path d="M836.174,464.908"/>
	<text transform="matrix(1.4268 0 0 1 654.1152 483.0479)" fill="#E6D093" font-family="'DINCondensed-Bold'" font-size="31.8538">SIXTY FIVE</text>
</g>
<g>
	<path d="M646.932,397.38c-0.686-4.142-2.023-8.154-2.656-12.278c0.134-0.617,0.061-1.282-0.221-1.842
		c-0.091-0.969-0.15-1.942-0.125-2.93c0.084-3.227-4.916-3.218-5,0c-0.082,3.134,0.422,6.137,1.106,9.13
		c-0.484,0.541-0.741,1.292-0.517,2.202c1.702,6.918,0.334,14.146,0.244,21.168c-0.042,3.226,4.958,3.222,5,0
		c0.004-0.345,0.014-0.69,0.023-1.036c0.341-0.293,0.603-0.719,0.721-1.299C646.435,405.966,647.708,402.072,646.932,397.38z"/>
	<g>
		<g>
			<path d="M641.264,384.664c3.225,0,3.225-5,0-5S638.039,384.664,641.264,384.664L641.264,384.664z"/>
		</g>
	</g>
	<path fill="#003B60" d="M639.752,376.969h18.124c3.316,0,6.237,0.233,8.766,0.697c2.526,0.466,4.816,1.289,6.871,2.471
		c2.052,1.183,3.474,2.565,4.265,4.147c0.788,1.584,1.185,3.728,1.185,6.429c0,1.985-0.219,3.685-0.651,5.099
		c-0.436,1.415-1.363,2.734-2.784,3.959c-1.659,1.478-3.87,2.628-6.634,3.452c-2.766,0.823-6.397,1.234-10.898,1.234h-6.16v17.609
		h-12.083V376.969z M651.834,398.377h5.804c2.447,0,4.342-0.19,5.686-0.569c1.342-0.381,2.328-0.897,2.961-1.552
		c0.631-0.654,1.007-1.446,1.125-2.376c0.118-0.928,0.178-1.963,0.178-3.103c0-1.055-0.06-2.059-0.178-3.009
		c-0.119-0.95-0.474-1.773-1.066-2.471c-0.592-0.696-1.521-1.244-2.784-1.646c-1.264-0.4-3.08-0.602-5.449-0.602h-6.278V398.377z"/>
	<path fill="#003B60" d="M687.964,376.969h12.083v38.636h23.929v6.461h-36.011V376.969z"/>
	<path fill="#003B60" d="M770.883,411.931c0,1.479-0.514,2.851-1.539,4.117s-2.428,2.374-4.205,3.324
		c-1.777,0.951-3.85,1.7-6.219,2.249c-2.371,0.548-4.898,0.824-7.582,0.824c-2.686,0-5.211-0.275-7.58-0.824
		c-2.371-0.549-4.443-1.298-6.219-2.249c-1.777-0.95-3.181-2.058-4.207-3.324c-1.027-1.267-1.54-2.639-1.54-4.117v-34.962h12.083
		v34.328c0,1.604,0.711,2.788,2.133,3.547c1.422,0.761,3.197,1.141,5.33,1.141s3.91-0.38,5.332-1.141
		c1.42-0.759,2.131-1.942,2.131-3.547v-34.328h12.082V411.931z"/>
	<path fill="#003B60" d="M821.348,389.955h-12.084v-1.457c0-1.478-0.652-2.756-1.953-3.832c-1.305-1.076-3.496-1.615-6.576-1.615
		c-1.658,0-3.02,0.169-4.086,0.507s-1.895,0.771-2.488,1.299c-0.592,0.528-1.006,1.14-1.242,1.836
		c-0.238,0.697-0.355,1.426-0.355,2.185c0,0.887,0.059,1.638,0.176,2.25c0.117,0.611,0.416,1.139,0.889,1.582
		c0.475,0.442,1.164,0.835,2.074,1.172c0.906,0.339,2.15,0.677,3.73,1.014l9.24,1.964c2.684,0.548,4.855,1.193,6.514,1.931
		c1.658,0.74,2.941,1.605,3.85,2.599c0.908,0.991,1.521,2.131,1.838,3.418c0.314,1.289,0.475,2.756,0.475,4.402
		c0,1.899-0.355,3.664-1.066,5.288c-0.711,1.626-1.879,3.02-3.496,4.181c-1.619,1.162-3.771,2.079-6.455,2.755
		c-2.686,0.674-5.965,1.014-9.832,1.014c-2.922,0-5.648-0.275-8.174-0.824c-2.527-0.549-4.699-1.298-6.516-2.249
		c-1.816-0.95-3.258-2.079-4.322-3.388c-1.066-1.309-1.602-2.723-1.602-4.244v-2.406h12.084v2.027c0,1.182,0.652,2.248,1.953,3.197
		c1.305,0.95,3.496,1.426,6.576,1.426c2.053,0,3.65-0.158,4.797-0.476c1.145-0.316,2.016-0.76,2.605-1.33
		c0.594-0.569,0.969-1.277,1.127-2.122c0.156-0.843,0.236-1.772,0.236-2.786c0-1.182-0.08-2.153-0.236-2.913
		c-0.158-0.761-0.494-1.372-1.006-1.837c-0.516-0.465-1.227-0.845-2.133-1.14c-0.908-0.296-2.113-0.611-3.613-0.95l-8.648-1.9
		c-5.213-1.141-8.705-2.649-10.484-4.529c-1.775-1.877-2.664-4.231-2.664-7.061c0-1.689,0.434-3.294,1.303-4.814
		c0.867-1.52,2.152-2.827,3.852-3.926c1.697-1.098,3.848-1.974,6.455-2.628c2.605-0.655,5.645-0.982,9.121-0.982
		c3.002,0,5.746,0.296,8.232,0.887c2.488,0.592,4.619,1.373,6.396,2.343c1.779,0.972,3.139,2.059,4.088,3.262
		c0.947,1.203,1.422,2.438,1.422,3.705V389.955z"/>
	<path d="M861.085,410.5"/>
	<path fill="#BF0411" d="M636.252,373.969h18.124c3.316,0,6.237,0.233,8.766,0.697c2.526,0.466,4.816,1.289,6.871,2.471
		c2.052,1.183,3.474,2.565,4.265,4.147c0.788,1.584,1.185,3.728,1.185,6.429c0,1.985-0.219,3.685-0.651,5.099
		c-0.436,1.415-1.363,2.734-2.784,3.959c-1.659,1.478-3.87,2.628-6.634,3.452c-2.766,0.823-6.397,1.234-10.898,1.234h-6.16v17.608
		h-12.083V373.969z M648.334,395.377h5.804c2.447,0,4.342-0.19,5.686-0.569c1.342-0.381,2.328-0.897,2.961-1.552
		c0.631-0.654,1.007-1.446,1.125-2.376c0.118-0.928,0.178-1.963,0.178-3.103c0-1.055-0.06-2.059-0.178-3.009
		c-0.119-0.95-0.474-1.773-1.066-2.471c-0.592-0.696-1.521-1.244-2.784-1.646c-1.264-0.4-3.08-0.602-5.449-0.602h-6.278V395.377z"/>
	<path fill="#BF0411" d="M684.464,373.969h12.083v38.636h23.929v6.461h-36.011V373.969z"/>
	<path fill="#BF0411" d="M767.383,408.931c0,1.479-0.515,2.851-1.539,4.117c-1.026,1.267-2.429,2.374-4.205,3.324
		c-1.777,0.951-3.851,1.7-6.219,2.249c-2.371,0.549-4.898,0.823-7.582,0.823c-2.687,0-5.212-0.274-7.58-0.823
		c-2.371-0.549-4.443-1.298-6.22-2.249c-1.776-0.95-3.18-2.058-4.206-3.324c-1.027-1.267-1.54-2.639-1.54-4.117v-34.962h12.083
		v34.328c0,1.604,0.711,2.788,2.133,3.547c1.422,0.761,3.197,1.141,5.33,1.141c2.132,0,3.909-0.38,5.331-1.141
		c1.421-0.759,2.131-1.942,2.131-3.547v-34.328h12.083V408.931z"/>
	<path fill="#BF0411" d="M817.847,386.955h-12.083v-1.457c0-1.478-0.652-2.756-1.954-3.832c-1.304-1.076-3.496-1.615-6.575-1.615
		c-1.659,0-3.02,0.169-4.086,0.507s-1.896,0.771-2.489,1.299c-0.592,0.528-1.006,1.14-1.242,1.836
		c-0.237,0.697-0.355,1.426-0.355,2.185c0,0.887,0.059,1.638,0.177,2.25c0.117,0.611,0.415,1.139,0.888,1.582
		c0.475,0.442,1.165,0.835,2.074,1.172c0.906,0.339,2.15,0.677,3.73,1.014l9.24,1.964c2.684,0.548,4.856,1.193,6.515,1.931
		c1.658,0.74,2.94,1.605,3.85,2.599c0.908,0.991,1.521,2.131,1.837,3.418c0.315,1.289,0.475,2.756,0.475,4.402
		c0,1.899-0.355,3.664-1.066,5.288c-0.711,1.626-1.878,3.02-3.495,4.181c-1.619,1.162-3.771,2.079-6.455,2.755
		c-2.686,0.675-5.965,1.014-9.833,1.014c-2.921,0-5.647-0.274-8.173-0.823c-2.528-0.549-4.699-1.298-6.516-2.249
		c-1.817-0.95-3.259-2.079-4.322-3.388c-1.066-1.309-1.602-2.723-1.602-4.244v-2.406h12.083v2.027c0,1.182,0.652,2.248,1.954,3.197
		c1.304,0.95,3.496,1.426,6.575,1.426c2.053,0,3.651-0.158,4.797-0.476c1.145-0.316,2.016-0.76,2.606-1.33
		c0.593-0.569,0.968-1.277,1.126-2.122c0.157-0.843,0.237-1.772,0.237-2.786c0-1.182-0.08-2.153-0.237-2.913
		c-0.158-0.761-0.494-1.372-1.006-1.837c-0.516-0.465-1.227-0.845-2.133-1.14c-0.908-0.296-2.113-0.611-3.613-0.95l-8.648-1.9
		c-5.212-1.141-8.705-2.649-10.483-4.529c-1.776-1.877-2.664-4.231-2.664-7.061c0-1.689,0.433-3.294,1.302-4.814
		c0.868-1.52,2.152-2.827,3.852-3.926c1.697-1.098,3.849-1.974,6.455-2.628c2.605-0.655,5.645-0.982,9.121-0.982
		c3.002,0,5.746,0.296,8.232,0.887c2.488,0.592,4.62,1.373,6.397,2.343c1.778,0.972,3.139,2.059,4.087,3.262
		c0.947,1.203,1.422,2.438,1.422,3.705V386.955z"/>
</g>
<ellipse fill="#003B60" cx="605.793" cy="398.207" rx="10.793" ry="9.926"/>
<ellipse fill="#003B60" cx="846.967" cy="398.207" rx="10.793" ry="9.926"/>
<g>
	<rect x="764.035" y="362.177" fill="#003B60" width="40.682" height="3.376"/>
	<rect x="636.233" y="362.177" fill="#003B60" width="40.682" height="3.376"/>
	<polygon fill="#003B60" points="690.853,343.625 695.159,350.844 704.79,352.001 697.821,357.619 699.466,365.553 690.853,361.808 
		682.239,365.553 683.885,357.619 676.916,352.001 686.546,350.844 	"/>
	<polygon fill="#003B60" points="750.098,343.625 754.404,350.844 764.035,352.001 757.066,357.619 758.711,365.553 
		750.098,361.808 741.484,365.553 743.129,357.619 736.16,352.001 745.791,350.844 	"/>
	<polygon fill="#003B60" points="720.475,335.157 726.238,345.163 739.125,346.768 729.8,354.556 732.002,365.553 720.475,360.36 
		708.949,365.553 711.15,354.556 701.825,346.768 714.712,345.163 	"/>
</g>
</svg>
