<?xml version="1.0" encoding="utf-8"?>
<!-- Generator: Adobe Illustrator 16.0.0, SVG Export Plug-In . SVG Version: 6.00 Build 0)  -->
<!DOCTYPE svg PUBLIC "-//W3C//DTD SVG 1.1//EN" "http://www.w3.org/Graphics/SVG/1.1/DTD/svg11.dtd">
<svg version="1.1" id="Capa_1" xmlns="http://www.w3.org/2000/svg" xmlns:xlink="http://www.w3.org/1999/xlink" x="0px" y="0px"
	 width="341px" height="314px" viewBox="0 0 341 314" enable-background="new 0 0 341 314" xml:space="preserve">
<g>
	<g>
		<path fill="#E0CB90" d="M162.833,17.995c4.216-4.374,11.115-4.374,15.333,0c4.216,4.374,11.841,5.119,16.943,1.656
			c5.102-3.463,11.851-2.129,14.997,2.965c3.147,5.093,10.438,7.296,16.203,4.896c5.766-2.4,12.068,0.209,14.008,5.799
			c1.938,5.59,8.578,9.155,14.754,7.922c6.176-1.234,11.758,2.538,12.404,8.38c0.646,5.844,6.344,10.614,12.661,10.602
			c6.315-0.013,10.933,4.756,10.26,10.597c-0.674,5.84,3.832,11.608,10.014,12.817c6.181,1.209,9.632,6.766,7.666,12.349
			c-1.964,5.583,1.154,12.096,6.93,14.474c5.775,2.378,7.909,8.481,4.738,13.562c-3.17,5.08-1.576,12.054,3.543,15.497
			c5.117,3.443,5.838,9.824,1.603,14.181c-4.237,4.356-4.237,11.486,0,15.843c4.236,4.358,3.516,10.738-1.603,14.182
			c-5.119,3.442-6.713,10.416-3.543,15.497c3.171,5.08,1.037,11.184-4.738,13.562c-5.775,2.377-8.894,8.89-6.93,14.473
			c1.965,5.583-1.485,11.14-7.666,12.35c-6.182,1.208-10.688,6.977-10.014,12.817c0.673,5.841-3.942,10.609-10.26,10.597
			s-12.014,4.757-12.661,10.601c-0.646,5.844-6.229,9.616-12.404,8.382s-12.815,2.332-14.754,7.922
			c-1.939,5.59-8.242,8.2-14.008,5.799c-5.765-2.399-13.056-0.196-16.203,4.896c-3.146,5.093-9.896,6.428-14.997,2.964
			c-5.103-3.462-12.728-2.717-16.943,1.656c-4.217,4.375-11.117,4.375-15.333,0c-4.217-4.373-11.841-5.118-16.943-1.656
			c-5.103,3.464-11.851,2.129-14.998-2.964c-3.147-5.093-10.438-7.297-16.203-4.896c-5.765,2.401-12.068-0.209-14.008-5.799
			s-8.579-9.156-14.754-7.922c-6.176,1.235-11.758-2.537-12.405-8.382c-0.647-5.843-6.343-10.612-12.661-10.601
			c-6.316,0.013-10.933-4.756-10.259-10.597c0.674-5.841-3.832-11.608-10.014-12.817c-6.181-1.209-9.631-6.767-7.666-12.35
			c1.964-5.583-1.154-12.096-6.93-14.473c-5.776-2.378-7.908-8.481-4.738-13.562c3.17-5.081,1.576-12.055-3.542-15.497
			c-5.117-3.443-5.839-9.823-1.602-14.182c4.237-4.356,4.237-11.486,0-15.843c-4.237-4.357-3.515-10.738,1.602-14.181
			c5.119-3.442,6.712-10.416,3.542-15.497c-3.17-5.081-1.038-11.184,4.738-13.562c5.776-2.377,8.894-8.891,6.93-14.474
			c-1.964-5.583,1.485-11.14,7.666-12.349c6.181-1.209,10.688-6.977,10.014-12.816c-0.673-5.841,3.943-10.61,10.259-10.597
			c6.317,0.013,12.014-4.757,12.661-10.601c0.646-5.843,6.229-9.614,12.405-8.381c6.175,1.233,12.814-2.332,14.754-7.921
			c1.939-5.591,8.243-8.201,14.008-5.8c5.765,2.4,13.056,0.197,16.203-4.896c3.146-5.093,9.895-6.427,14.998-2.965
			C150.992,23.114,158.616,22.368,162.833,17.995z"/>
		
			<ellipse fill="none" stroke="#03395D" stroke-width="5" stroke-miterlimit="10" cx="173.049" cy="162.787" rx="131.131" ry="124.378"/>
		
			<ellipse fill="none" stroke="#03395D" stroke-width="15" stroke-linecap="round" stroke-miterlimit="10" stroke-dasharray="0,25,0,25" cx="174.215" cy="164.134" rx="115.85" ry="109.838"/>
	</g>
	<g>
		<path fill="#E0CB90" d="M162.833,17.995c4.216-4.374,11.115-4.374,15.333,0c4.216,4.374,11.841,5.119,16.943,1.656
			c5.102-3.463,11.851-2.129,14.997,2.965c3.147,5.093,10.438,7.296,16.203,4.896c5.766-2.4,12.068,0.209,14.008,5.799
			c1.938,5.59,8.578,9.155,14.754,7.922c6.176-1.234,11.758,2.538,12.404,8.38c0.646,5.844,6.344,10.614,12.661,10.602
			c6.315-0.013,10.933,4.756,10.26,10.597c-0.674,5.84,3.832,11.608,10.014,12.817c6.181,1.209,9.632,6.766,7.666,12.349
			c-1.964,5.583,1.154,12.096,6.93,14.474c5.775,2.378,7.909,8.481,4.738,13.562c-3.17,5.08-1.576,12.054,3.543,15.497
			c5.117,3.443,5.838,9.824,1.603,14.181c-4.237,4.356-4.237,11.486,0,15.843c4.236,4.358,3.516,10.738-1.603,14.182
			c-5.119,3.442-6.713,10.416-3.543,15.497c3.171,5.08,1.037,11.184-4.738,13.562c-5.775,2.377-8.894,8.89-6.93,14.473
			c1.965,5.583-1.485,11.14-7.666,12.35c-6.182,1.208-10.688,6.977-10.014,12.817c0.673,5.841-3.942,10.609-10.26,10.597
			s-12.014,4.757-12.661,10.601c-0.646,5.844-6.229,9.616-12.404,8.382s-12.815,2.332-14.754,7.922
			c-1.939,5.59-8.242,8.2-14.008,5.799c-5.765-2.399-13.056-0.196-16.203,4.896c-3.146,5.093-9.896,6.428-14.997,2.964
			c-5.103-3.462-12.728-2.717-16.943,1.656c-4.217,4.375-11.117,4.375-15.333,0c-4.217-4.373-11.841-5.118-16.943-1.656
			c-5.103,3.464-11.851,2.129-14.998-2.964c-3.147-5.093-10.438-7.297-16.203-4.896c-5.765,2.401-12.068-0.209-14.008-5.799
			s-8.579-9.156-14.754-7.922c-6.176,1.235-11.758-2.537-12.405-8.382c-0.647-5.843-6.343-10.612-12.661-10.601
			c-6.316,0.013-10.933-4.756-10.259-10.597c0.674-5.841-3.832-11.608-10.014-12.817c-6.181-1.209-9.631-6.767-7.666-12.35
			c1.964-5.583-1.154-12.096-6.93-14.473c-5.776-2.378-7.908-8.481-4.738-13.562c3.17-5.081,1.576-12.055-3.542-15.497
			c-5.117-3.443-5.839-9.823-1.602-14.182c4.237-4.356,4.237-11.486,0-15.843c-4.237-4.357-3.515-10.738,1.602-14.181
			c5.119-3.442,6.712-10.416,3.542-15.497c-3.17-5.081-1.038-11.184,4.738-13.562c5.776-2.377,8.894-8.891,6.93-14.474
			c-1.964-5.583,1.485-11.14,7.666-12.349c6.181-1.209,10.688-6.977,10.014-12.816c-0.673-5.841,3.943-10.61,10.259-10.597
			c6.317,0.013,12.014-4.757,12.661-10.601c0.646-5.843,6.229-9.614,12.405-8.381c6.175,1.233,12.814-2.332,14.754-7.921
			c1.939-5.591,8.243-8.201,14.008-5.8c5.765,2.4,13.056,0.197,16.203-4.896c3.146-5.093,9.895-6.427,14.998-2.965
			C150.992,23.114,158.616,22.368,162.833,17.995z"/>
		
			<ellipse fill="none" stroke="#03395D" stroke-width="5" stroke-miterlimit="10" cx="173.049" cy="162.787" rx="131.131" ry="124.378"/>
		
			<ellipse fill="none" stroke="#03395D" stroke-width="15" stroke-linecap="round" stroke-miterlimit="10" stroke-dasharray="0,25,0,25" cx="174.215" cy="164.134" rx="115.85" ry="109.838"/>
	</g>
	<path fill="none" d="M65.573,177.434c1.071-46.514,48.915-83.299,106.863-82.157c57.952,1.141,104.063,39.771,102.996,86.287
		c-1.071,46.515-58.516,85.154-116.465,84.014C111.418,264.641,64.289,233.303,65.573,177.434z"/>
	
		<text transform="matrix(1.1549 -0.2068 0.2048 0.9788 139.4683 98.6045)" fill="#030104" font-family="'DINCondensed-Bold'" font-size="32.0504">S</text>
	
		<text transform="matrix(1.1732 -0.1076 0.1066 0.9943 154 96.147)" fill="#030104" font-family="'DINCondensed-Bold'" font-size="31.9785">I</text>
	
		<text transform="matrix(1.1798 -0.0032 0.0031 1 161.1665 95.3433)" fill="#030104" font-family="'DINCondensed-Bold'" font-size="31.9532">N</text>
	
		<text transform="matrix(1.1697 0.1328 -0.1316 0.9913 177.1045 95.2246)" fill="#030104" font-family="'DINCondensed-Bold'" font-size="31.9915">C</text>
	
		<text transform="matrix(1.1408 0.2577 -0.2552 0.9669 191.667 96.877)" fill="#030104" font-family="'DINCondensed-Bold'" font-size="32.1051">E</text>
	<path fill="none" d="M220.753,251.851c53.08-23.684,73.613-86.044,45.859-139.286c-27.752-53.244-93.288-77.21-146.37-53.53
		c-53.081,23.682-73.612,86.042-45.857,139.289C102.137,251.566,167.671,275.532,220.753,251.851z"/>
	
		<text transform="matrix(0.8508 0.61 -0.6422 0.7665 103.7466 234.6621)" fill="#030104" font-family="'DINCondensed-Bold'" font-size="32.9473">O</text>
	
		<text transform="matrix(0.9428 0.5013 -0.5277 0.8494 117.4546 244.2471)" fill="#030104" font-family="'DINCondensed-Bold'" font-size="32.614">L</text>
	
		<text transform="matrix(1.0195 0.3758 -0.3956 0.9184 130.7627 251.2393)" fill="#030104" font-family="'DINCondensed-Bold'" font-size="32.318">D</text>
	
		<text transform="matrix(1.0647 0.2683 -0.2825 0.9593 146.4927 256.707)" fill="#030104" font-family="'DINCondensed-Bold'" font-size="32.1376"> </text>
	
		<text transform="matrix(1.0949 0.1557 -0.1639 0.9865 154.5029 258.8477)" fill="#030104" font-family="'DINCondensed-Bold'" font-size="32.015">S</text>
	
		<text transform="matrix(1.1098 -0.0101 0.0107 0.9999 171.208 261.0449)" fill="#030104" font-family="'DINCondensed-Bold'" font-size="31.9547">C</text>
	
		<text transform="matrix(1.0884 -0.1865 0.1963 0.9805 188.293 260.707)" fill="#030104" font-family="'DINCondensed-Bold'" font-size="32.0426">H</text>
	
		<text transform="matrix(1.0266 -0.3612 0.3801 0.9249 205.8115 257.4697)" fill="#030104" font-family="'DINCondensed-Bold'" font-size="32.2905">O</text>
	
		<text transform="matrix(0.9304 -0.518 0.5453 0.8383 222.3857 251.4023)" fill="#030104" font-family="'DINCondensed-Bold'" font-size="32.6595">O</text>
	
		<text transform="matrix(0.813 -0.6467 0.6807 0.7325 237.3691 242.7363)" fill="#030104" font-family="'DINCondensed-Bold'" font-size="33.0765">L</text>
	<text transform="matrix(1.0809 0 0 1 142.1836 222.7139)" fill="#B32217" font-family="'DINCondensed-Bold'" font-size="13.9794">IES LA PINEDA</text>
	<g>
		<rect x="116.378" y="179.996" fill="#03395D" width="115.823" height="18.554"/>
		<polygon fill="#03395D" points="110.34,190.673 75.821,190.819 94.443,179.703 75.821,172.266 122.604,172.118 110.34,180.07 		
			"/>
		<polygon fill="#03395D" points="236.157,190.673 270.676,190.819 252.053,179.703 270.676,172.266 223.891,172.118 
			236.157,180.07 		"/>
		<path fill="#030104" d="M252.053,184.708"/>
		<text transform="matrix(1.5423 0 0 1 121.0513 196.7832)" fill="#E0CB90" font-family="'DINCondensed-Bold'" font-size="21.2046">SIXTY FIVE</text>
	</g>
	<g>
		<path fill="#030104" d="M115.882,139.756c-0.494-2.757-1.456-5.428-1.912-8.173c0.097-0.411,0.044-0.854-0.159-1.227
			c-0.065-0.645-0.108-1.292-0.09-1.95c0.061-2.148-3.537-2.142-3.598,0c-0.059,2.086,0.304,4.085,0.795,6.078
			c-0.348,0.36-0.533,0.86-0.372,1.465c1.225,4.605,0.24,9.417,0.176,14.091c-0.03,2.147,3.568,2.145,3.598,0
			c0.003-0.229,0.01-0.459,0.016-0.689c0.246-0.195,0.434-0.479,0.519-0.865C115.524,145.472,116.44,142.88,115.882,139.756z"/>
		<g>
			<g>
				<path fill="#030104" d="M111.804,131.292c2.321,0,2.321-3.329,0-3.329C109.483,127.963,109.483,131.292,111.804,131.292
					L111.804,131.292z"/>
			</g>
		</g>
		<path fill="#03395D" d="M110.716,126.169h13.041c2.386,0,4.488,0.155,6.308,0.464c1.817,0.31,3.465,0.858,4.944,1.645
			c1.476,0.788,2.499,1.708,3.068,2.761c0.567,1.055,0.853,2.482,0.853,4.28c0,1.322-0.157,2.453-0.468,3.395
			c-0.313,0.942-0.98,1.82-2.003,2.635c-1.193,0.984-2.785,1.75-4.773,2.298c-1.991,0.548-4.604,0.822-7.842,0.822h-4.433v11.722
			h-8.695L110.716,126.169L110.716,126.169z M119.41,140.42h4.176c1.761,0,3.124-0.126,4.091-0.379
			c0.966-0.254,1.675-0.597,2.131-1.033c0.454-0.436,0.725-0.962,0.809-1.581c0.085-0.618,0.128-1.308,0.128-2.066
			c0-0.703-0.043-1.371-0.128-2.003c-0.085-0.633-0.341-1.18-0.767-1.645c-0.426-0.463-1.094-0.828-2.003-1.096
			c-0.909-0.266-2.216-0.401-3.92-0.401h-4.518L119.41,140.42L119.41,140.42z"/>
		<path fill="#03395D" d="M145.407,126.169h8.695v25.719h17.219v4.301h-25.913L145.407,126.169L145.407,126.169z"/>
		<path fill="#03395D" d="M205.072,149.442c0,0.985-0.37,1.898-1.107,2.741c-0.738,0.843-1.747,1.58-3.026,2.213
			c-1.278,0.633-2.77,1.131-4.475,1.498c-1.706,0.364-3.524,0.548-5.455,0.548c-1.933,0-3.749-0.184-5.455-0.548
			c-1.705-0.366-3.196-0.864-4.475-1.498c-1.278-0.633-2.289-1.37-3.027-2.213c-0.739-0.843-1.108-1.756-1.108-2.741v-23.273h8.694
			v22.852c0,1.068,0.513,1.856,1.535,2.361c1.023,0.506,2.301,0.759,3.836,0.759s2.813-0.253,3.837-0.759
			c1.021-0.505,1.533-1.293,1.533-2.361v-22.852h8.693V149.442L205.072,149.442z"/>
		<path fill="#03395D" d="M241.385,134.813h-8.695v-0.97c0-0.984-0.47-1.835-1.405-2.551c-0.939-0.716-2.516-1.075-4.732-1.075
			c-1.192,0-2.173,0.112-2.939,0.337c-0.767,0.225-1.363,0.513-1.789,0.865c-0.427,0.352-0.725,0.759-0.895,1.222
			c-0.171,0.465-0.255,0.949-0.255,1.455c0,0.591,0.042,1.091,0.126,1.498c0.084,0.407,0.299,0.759,0.64,1.053
			c0.341,0.294,0.838,0.556,1.492,0.78c0.652,0.227,1.548,0.452,2.685,0.676l6.648,1.307c1.931,0.365,3.493,0.794,4.688,1.285
			c1.192,0.493,2.116,1.069,2.77,1.73c0.654,0.66,1.096,1.419,1.322,2.276c0.227,0.858,0.342,1.834,0.342,2.931
			c0,1.264-0.255,2.438-0.767,3.52c-0.511,1.082-1.352,2.01-2.515,2.783c-1.165,0.773-2.714,1.384-4.646,1.834
			c-1.934,0.448-4.292,0.674-7.075,0.674c-2.102,0-4.062-0.183-5.881-0.548c-1.818-0.365-3.382-0.864-4.689-1.498
			c-1.306-0.632-2.344-1.383-3.109-2.255c-0.768-0.872-1.153-1.812-1.153-2.825v-1.602h8.695v1.35c0,0.787,0.47,1.497,1.405,2.128
			c0.938,0.632,2.517,0.949,4.731,0.949c1.479,0,2.628-0.105,3.452-0.317c0.824-0.21,1.45-0.506,1.875-0.885
			c0.428-0.379,0.697-0.85,0.812-1.413c0.111-0.561,0.169-1.18,0.169-1.854c0-0.787-0.058-1.433-0.169-1.939
			c-0.114-0.507-0.356-0.914-0.724-1.223c-0.373-0.31-0.884-0.562-1.535-0.759c-0.653-0.197-1.521-0.407-2.6-0.633l-6.224-1.264
			c-3.751-0.76-6.265-1.764-7.545-3.016c-1.275-1.25-1.916-2.816-1.916-4.7c0-1.124,0.312-2.192,0.938-3.204
			c0.623-1.012,1.548-1.882,2.771-2.614c1.221-0.731,2.769-1.314,4.645-1.75c1.873-0.436,4.062-0.654,6.563-0.654
			c2.159,0,4.135,0.197,5.923,0.591c1.79,0.394,3.323,0.914,4.603,1.56c1.28,0.647,2.258,1.37,2.941,2.171
			c0.681,0.801,1.022,1.623,1.022,2.466L241.385,134.813L241.385,134.813z"/>
		<path fill="#030104" d="M269.978,148.49"/>
		<path fill="#B32217" d="M108.197,124.171h13.041c2.386,0,4.488,0.156,6.308,0.465c1.817,0.31,3.465,0.858,4.944,1.645
			c1.476,0.787,2.5,1.708,3.068,2.761c0.567,1.055,0.853,2.481,0.853,4.28c0,1.321-0.158,2.453-0.469,3.395
			c-0.313,0.941-0.98,1.819-2.003,2.635c-1.193,0.984-2.784,1.75-4.773,2.298c-1.991,0.548-4.603,0.822-7.842,0.822h-4.433v11.721
			h-8.694L108.197,124.171L108.197,124.171z M116.891,138.423h4.177c1.761,0,3.125-0.127,4.091-0.378
			c0.966-0.254,1.675-0.597,2.131-1.034c0.454-0.436,0.725-0.963,0.809-1.582c0.085-0.618,0.128-1.306,0.128-2.065
			c0-0.702-0.043-1.371-0.128-2.003c-0.085-0.632-0.341-1.18-0.767-1.645c-0.426-0.463-1.094-0.828-2.003-1.095
			c-0.91-0.267-2.216-0.401-3.921-0.401h-4.517V138.423L116.891,138.423z"/>
		<path fill="#B32217" d="M142.889,124.171h8.694v25.72h17.219v4.301h-25.913L142.889,124.171L142.889,124.171z"/>
		<path fill="#B32217" d="M202.554,147.445c0,0.985-0.371,1.898-1.107,2.741c-0.738,0.843-1.747,1.581-3.025,2.213
			c-1.279,0.634-2.771,1.132-4.476,1.498c-1.706,0.365-3.524,0.547-5.455,0.547c-1.934,0-3.75-0.182-5.454-0.547
			c-1.706-0.366-3.197-0.864-4.477-1.498c-1.277-0.632-2.288-1.37-3.026-2.213c-0.739-0.843-1.108-1.756-1.108-2.741v-23.274h8.695
			v22.852c0,1.068,0.512,1.856,1.534,2.361c1.023,0.507,2.301,0.759,3.836,0.759c1.534,0,2.812-0.252,3.836-0.759
			c1.022-0.505,1.533-1.293,1.533-2.361v-22.852h8.694V147.445L202.554,147.445z"/>
		<path fill="#B32217" d="M238.866,132.817h-8.695v-0.97c0-0.984-0.469-1.834-1.405-2.551c-0.939-0.717-2.516-1.075-4.732-1.075
			c-1.192,0-2.173,0.112-2.94,0.337c-0.766,0.225-1.363,0.513-1.789,0.865c-0.426,0.351-0.724,0.759-0.895,1.222
			c-0.17,0.464-0.255,0.95-0.255,1.455c0,0.591,0.042,1.09,0.127,1.499c0.084,0.407,0.299,0.758,0.64,1.053
			c0.342,0.294,0.838,0.556,1.491,0.78c0.652,0.226,1.547,0.45,2.685,0.675l6.648,1.307c1.932,0.365,3.494,0.794,4.688,1.285
			c1.192,0.493,2.115,1.069,2.77,1.73c0.654,0.66,1.096,1.419,1.322,2.276c0.227,0.858,0.342,1.834,0.342,2.93
			c0,1.265-0.255,2.439-0.768,3.521c-0.511,1.083-1.352,2.01-2.514,2.783c-1.165,0.773-2.714,1.384-4.646,1.834
			c-1.934,0.45-4.292,0.675-7.075,0.675c-2.102,0-4.062-0.183-5.881-0.548c-1.819-0.366-3.382-0.864-4.688-1.498
			c-1.308-0.632-2.346-1.384-3.11-2.255c-0.767-0.871-1.153-1.812-1.153-2.825v-1.602h8.694v1.349c0,0.787,0.47,1.497,1.406,2.128
			c0.939,0.633,2.517,0.95,4.731,0.95c1.478,0,2.628-0.105,3.452-0.317c0.823-0.21,1.45-0.506,1.875-0.885
			c0.427-0.379,0.696-0.851,0.81-1.413c0.113-0.562,0.171-1.18,0.171-1.855c0-0.787-0.058-1.434-0.171-1.939
			s-0.354-0.913-0.724-1.223c-0.371-0.31-0.883-0.562-1.535-0.759c-0.653-0.196-1.521-0.406-2.6-0.632l-6.222-1.265
			c-3.751-0.76-6.265-1.764-7.544-3.015c-1.277-1.25-1.917-2.816-1.917-4.7c0-1.125,0.312-2.193,0.938-3.205
			c0.624-1.012,1.549-1.882,2.771-2.614c1.221-0.73,2.77-1.314,4.645-1.749c1.875-0.436,4.062-0.654,6.563-0.654
			c2.16,0,4.135,0.197,5.924,0.59c1.79,0.394,3.323,0.914,4.603,1.56c1.279,0.646,2.258,1.37,2.94,2.171
			c0.682,0.801,1.023,1.623,1.023,2.466L238.866,132.817L238.866,132.817z"/>
	</g>
	<ellipse fill="#03395D" cx="86.28" cy="140.307" rx="7.766" ry="6.607"/>
	<ellipse fill="#03395D" cx="259.819" cy="140.307" rx="7.766" ry="6.607"/>
	<g>
		<rect x="205.561" y="116.322" fill="#03395D" width="29.273" height="2.248"/>
		<rect x="113.599" y="116.322" fill="#03395D" width="29.273" height="2.248"/>
		<polygon fill="#03395D" points="152.901,103.972 156,108.778 162.929,109.548 157.916,113.288 159.099,118.569 152.901,116.077 
			146.703,118.569 147.887,113.288 142.872,109.548 149.801,108.778 		"/>
		<polygon fill="#03395D" points="195.531,103.972 198.63,108.778 205.561,109.548 200.546,113.288 201.729,118.569 
			195.531,116.077 189.333,118.569 190.517,113.288 185.502,109.548 192.433,108.778 		"/>
		<polygon fill="#03395D" points="174.215,98.335 178.362,104.996 187.636,106.065 180.926,111.249 182.511,118.569 
			174.215,115.112 165.922,118.569 167.506,111.249 160.796,106.065 170.068,104.996 		"/>
	</g>
</g>
</svg>
