<?xml version="1.0" encoding="UTF-8" standalone="no"?>
<!-- Generator: Adobe Illustrator 16.0.0, SVG Export Plug-In . SVG Version: 6.00 Build 0)  -->

<svg
   xmlns:dc="http://purl.org/dc/elements/1.1/"
   xmlns:cc="http://creativecommons.org/ns#"
   xmlns:rdf="http://www.w3.org/1999/02/22-rdf-syntax-ns#"
   xmlns:svg="http://www.w3.org/2000/svg"
   xmlns="http://www.w3.org/2000/svg"
   xmlns:sodipodi="http://sodipodi.sourceforge.net/DTD/sodipodi-0.dtd"
   xmlns:inkscape="http://www.inkscape.org/namespaces/inkscape"
   version="1.1"
   id="Capa_1"
   x="0px"
   y="0px"
   width="64.307121"
   height="89.163963"
   viewBox="0 0 64.307121 89.163963"
   xml:space="preserve"
   inkscape:version="0.91 r13725"
   sodipodi:docname="clinic3.svg"><metadata
   id="metadata49"><rdf:RDF><cc:Work
       rdf:about=""><dc:format>image/svg+xml</dc:format><dc:type
         rdf:resource="http://purl.org/dc/dcmitype/StillImage" /><dc:title></dc:title></cc:Work></rdf:RDF></metadata><defs
   id="defs47" /><sodipodi:namedview
   pagecolor="#ffffff"
   bordercolor="#666666"
   borderopacity="1"
   objecttolerance="10"
   gridtolerance="10"
   guidetolerance="10"
   inkscape:pageopacity="0"
   inkscape:pageshadow="2"
   inkscape:window-width="640"
   inkscape:window-height="480"
   id="namedview45"
   showgrid="false"
   fit-margin-top="0"
   fit-margin-left="0"
   fit-margin-right="0"
   fit-margin-bottom="0"
   inkscape:zoom="2.4112881"
   inkscape:cx="34.434501"
   inkscape:cy="40.227459"
   inkscape:window-x="0"
   inkscape:window-y="0"
   inkscape:window-maximized="0"
   inkscape:current-layer="Capa_1" />
<g
   id="g3"
   transform="matrix(0.93376008,0,0,0.91101695,-13.541389,0)">
	<g
   id="g5">
		<path
   d="m 78.25,3.39 -16.363,0 0,-1.114 C 61.887,1.019 60.866,0 59.609,0 L 38.265,0 c -1.257,0 -2.276,1.02 -2.276,2.276 l 0,1.114 -16.364,0 c -2.825,0 -5.123,2.298 -5.123,5.123 l 0,84.237 c 0,2.825 2.298,5.123 5.123,5.123 l 58.624,0 c 2.824,0 5.122,-2.298 5.122,-5.123 l 0,-84.237 C 83.372,5.688 81.074,3.39 78.25,3.39 Z m -0.57,88.792 -57.486,0 0,-83.1 15.795,0 0,0.681 c 0,1.257 1.02,2.277 2.276,2.277 l 21.344,0 c 1.258,0 2.277,-1.02 2.277,-2.277 l 0,-0.681 15.794,0 0,83.1 z"
   id="path7"
   inkscape:connector-curvature="0" />
		<rect
   x="29.205999"
   y="53.868999"
   width="39.462002"
   height="7.9679999"
   id="rect9" />
		<rect
   x="29.205999"
   y="70.185997"
   width="39.462002"
   height="7.9689999"
   id="rect11" />
		<polygon
   points="45.427,45.332 52.448,45.332 52.448,36.414 61.365,36.414 61.365,29.394 52.448,29.394 52.448,20.477 45.427,20.477 45.427,29.394 36.51,29.394 36.51,36.414 45.427,36.414 "
   id="polygon13" />
	</g>
</g>
<g
   id="g15"
   transform="translate(-14.502,0)">
</g>
<g
   id="g17"
   transform="translate(-14.502,0)">
</g>
<g
   id="g19"
   transform="translate(-14.502,0)">
</g>
<g
   id="g21"
   transform="translate(-14.502,0)">
</g>
<g
   id="g23"
   transform="translate(-14.502,0)">
</g>
<g
   id="g25"
   transform="translate(-14.502,0)">
</g>
<g
   id="g27"
   transform="translate(-14.502,0)">
</g>
<g
   id="g29"
   transform="translate(-14.502,0)">
</g>
<g
   id="g31"
   transform="translate(-14.502,0)">
</g>
<g
   id="g33"
   transform="translate(-14.502,0)">
</g>
<g
   id="g35"
   transform="translate(-14.502,0)">
</g>
<g
   id="g37"
   transform="translate(-14.502,0)">
</g>
<g
   id="g39"
   transform="translate(-14.502,0)">
</g>
<g
   id="g41"
   transform="translate(-14.502,0)">
</g>
<g
   id="g43"
   transform="translate(-14.502,0)">
</g>
</svg>