<?xml version="1.0" encoding="UTF-8" standalone="no"?>
<!-- Generator: Adobe Illustrator 16.0.0, SVG Export Plug-In . SVG Version: 6.00 Build 0)  -->

<svg
   xmlns:dc="http://purl.org/dc/elements/1.1/"
   xmlns:cc="http://creativecommons.org/ns#"
   xmlns:rdf="http://www.w3.org/1999/02/22-rdf-syntax-ns#"
   xmlns:svg="http://www.w3.org/2000/svg"
   xmlns="http://www.w3.org/2000/svg"
   xmlns:sodipodi="http://sodipodi.sourceforge.net/DTD/sodipodi-0.dtd"
   xmlns:inkscape="http://www.inkscape.org/namespaces/inkscape"
   version="1.1"
   id="Capa_1"
   x="0px"
   y="0px"
   width="107.3642"
   height="85.830505"
   viewBox="0 0 107.36419 85.830502"
   xml:space="preserve"
   inkscape:version="0.91 r13725"
   sodipodi:docname="folder223.svg"><metadata
   id="metadata41"><rdf:RDF><cc:Work
       rdf:about=""><dc:format>image/svg+xml</dc:format><dc:type
         rdf:resource="http://purl.org/dc/dcmitype/StillImage" /><dc:title></dc:title></cc:Work></rdf:RDF></metadata><defs
   id="defs39" /><sodipodi:namedview
   pagecolor="#ffffff"
   bordercolor="#666666"
   borderopacity="1"
   objecttolerance="10"
   gridtolerance="10"
   guidetolerance="10"
   inkscape:pageopacity="0"
   inkscape:pageshadow="2"
   inkscape:window-width="1366"
   inkscape:window-height="705"
   id="namedview37"
   showgrid="false"
   fit-margin-top="0"
   fit-margin-left="0"
   fit-margin-right="0"
   fit-margin-bottom="0"
   inkscape:zoom="4.9737612"
   inkscape:cx="42.824726"
   inkscape:cy="54.274865"
   inkscape:window-x="-8"
   inkscape:window-y="-8"
   inkscape:window-maximized="1"
   inkscape:current-layer="Capa_1" />
<g
   id="g3"
   transform="matrix(2.2626909,0,0,2.1355653,-7.6293945e-6,-7.7499665)">
	<path
   d="m 27.266,10.976 c -3.031,0 -5.5,1.907 -5.5,4.25 0,2.343 2.468,4.25 5.5,4.25 0.31,0 0.629,-0.024 0.971,-0.073 l 2.363,2.364 c 0.097,0.096 0.226,0.146 0.354,0.146 0.063,0 0.131,-0.012 0.19,-0.038 0.188,-0.076 0.31,-0.26 0.31,-0.462 l 0,-3.444 c 0.851,-0.771 1.313,-1.737 1.313,-2.742 -0.001,-2.344 -2.468,-4.251 -5.501,-4.251 z m -3.125,5.416 c -0.553,0 -1,-0.448 -1,-1 0,-0.552 0.447,-1 1,-1 0.554,0 1,0.448 1,1 0,0.552 -0.447,1 -1,1 z m 3.125,0 c -0.553,0 -1,-0.448 -1,-1 0,-0.552 0.447,-1 1,-1 0.554,0 1,0.448 1,1 0,0.552 -0.447,1 -1,1 z m 3.125,0 c -0.553,0 -1,-0.448 -1,-1 0,-0.552 0.447,-1 1,-1 0.554,0 1,0.448 1,1 0,0.552 -0.447,1 -1,1 z m 16.668,12.895 c -0.778,-1.854 -2.598,-3.063 -4.608,-3.063 l -2.554,0 0,-17.595 c 0,-2.761 -2.237,-5 -5,-5 L 5,3.629 c -2.762,0 -5,2.239 -5,5 l 0,30.125 c 0,0.1 0.023,0.191 0.029,0.289 0.008,0.184 0.026,0.365 0.055,0.548 0.017,0.091 0.029,0.181 0.049,0.271 0.064,0.303 0.146,0.604 0.271,0.896 C 1.183,42.611 3,43.82 5.012,43.82 l 30,0 c 1.344,0 2.633,-0.541 3.571,-1.502 l 7.44,-7.595 c 1.407,-1.438 1.816,-3.58 1.036,-5.436 z M 34.896,8.631 l 0,17.594 -6.34,0 C 28.544,25.13 27.657,24.246 26.558,24.246 l -10.062,0 c -1.099,0 -1.986,0.885 -1.998,1.979 l -2.049,0 c -1.345,0 -2.633,0.541 -3.572,1.501 L 5,31.684 5,8.63 l 29.896,10e-4 0,0 z"
   id="path5"
   inkscape:connector-curvature="0" />
</g>
<g
   id="g7"
   transform="translate(14.677014,7.630085)">
</g>
<g
   id="g9"
   transform="translate(14.677014,7.630085)">
</g>
<g
   id="g11"
   transform="translate(14.677014,7.630085)">
</g>
<g
   id="g13"
   transform="translate(14.677014,7.630085)">
</g>
<g
   id="g15"
   transform="translate(14.677014,7.630085)">
</g>
<g
   id="g17"
   transform="translate(14.677014,7.630085)">
</g>
<g
   id="g19"
   transform="translate(14.677014,7.630085)">
</g>
<g
   id="g21"
   transform="translate(14.677014,7.630085)">
</g>
<g
   id="g23"
   transform="translate(14.677014,7.630085)">
</g>
<g
   id="g25"
   transform="translate(14.677014,7.630085)">
</g>
<g
   id="g27"
   transform="translate(14.677014,7.630085)">
</g>
<g
   id="g29"
   transform="translate(14.677014,7.630085)">
</g>
<g
   id="g31"
   transform="translate(14.677014,7.630085)">
</g>
<g
   id="g33"
   transform="translate(14.677014,7.630085)">
</g>
<g
   id="g35"
   transform="translate(14.677014,7.630085)">
</g>
</svg>