<?xml version="1.0" encoding="UTF-8" standalone="no"?>
<!-- Generator: Adobe Illustrator 18.1.1, SVG Export Plug-In . SVG Version: 6.00 Build 0)  -->

<svg
   xmlns:dc="http://purl.org/dc/elements/1.1/"
   xmlns:cc="http://creativecommons.org/ns#"
   xmlns:rdf="http://www.w3.org/1999/02/22-rdf-syntax-ns#"
   xmlns:svg="http://www.w3.org/2000/svg"
   xmlns="http://www.w3.org/2000/svg"
   xmlns:sodipodi="http://sodipodi.sourceforge.net/DTD/sodipodi-0.dtd"
   xmlns:inkscape="http://www.inkscape.org/namespaces/inkscape"
   version="1.1"
   id="Capa_1"
   x="0px"
   y="0px"
   viewBox="0 0 31.118643 31.11664"
   xml:space="preserve"
   inkscape:version="0.91 r13725"
   sodipodi:docname="information14.svg"
   width="31.118643"
   height="31.116638"><metadata
   id="metadata49"><rdf:RDF><cc:Work
       rdf:about=""><dc:format>image/svg+xml</dc:format><dc:type
         rdf:resource="http://purl.org/dc/dcmitype/StillImage" /><dc:title></dc:title></cc:Work></rdf:RDF></metadata><defs
   id="defs47" /><sodipodi:namedview
   pagecolor="#ffffff"
   bordercolor="#666666"
   borderopacity="1"
   objecttolerance="10"
   gridtolerance="10"
   guidetolerance="10"
   inkscape:pageopacity="0"
   inkscape:pageshadow="2"
   inkscape:window-width="640"
   inkscape:window-height="480"
   id="namedview45"
   showgrid="false"
   fit-margin-top="0"
   fit-margin-left="0"
   fit-margin-right="0"
   fit-margin-bottom="0"
   inkscape:zoom="0.38562092"
   inkscape:cx="306"
   inkscape:cy="-274.88235"
   inkscape:window-x="0"
   inkscape:window-y="0"
   inkscape:window-maximized="0"
   inkscape:current-layer="Capa_1" />
<g
   id="g3"
   transform="matrix(0.05084746,0,0,0.05084435,-1.9073488e-6,-5.084435e-5)">
	<g
   id="g5">
		<g
   id="g7">
			<path
   d="M 305.999,0.001 C 137.271,0.001 0,137.271 0,306 0,474.73 137.271,611.999 305.999,611.999 474.727,611.999 612,474.729 612,306 612,137.271 474.729,0.001 305.999,0.001 Z m 0,576.223 C 156.997,576.224 35.776,455.004 35.776,306 c 0,-149.001 121.221,-270.223 270.223,-270.223 149.002,0 270.225,121.222 270.225,270.223 0,149.004 -121.221,270.224 -270.225,270.224 z"
   id="path9"
   inkscape:connector-curvature="0" />
			<path
   d="m 301.234,209.422 c 36.608,0 66.39,-29.784 66.39,-66.392 0,-36.61 -29.782,-66.393 -66.39,-66.393 -36.61,0 -66.392,29.784 -66.392,66.393 0,36.608 29.783,66.392 66.392,66.392 z m 0,-97.009 c 16.88,0 30.614,13.735 30.614,30.617 0,16.88 -13.734,30.616 -30.614,30.616 -16.882,0 -30.616,-13.734 -30.616,-30.616 0,-16.882 13.734,-30.617 30.616,-30.617 z"
   id="path11"
   inkscape:connector-curvature="0" />
			<path
   d="m 412.174,431.684 -35.368,0 0,-187.768 c 0,-9.879 -8.009,-17.888 -17.888,-17.888 l -159.092,0 c -9.879,0 -17.888,8.009 -17.888,17.888 l 0,55.953 c 0,9.88 8.009,17.888 17.888,17.888 l 44.197,0 0,113.927 -34.496,0 c -9.879,0 -17.888,8.009 -17.888,17.888 l 0,67.906 c 0,9.88 8.009,17.888 17.888,17.888 l 202.646,0 c 9.879,0 17.888,-8.008 17.888,-17.888 l 0,-67.906 c 0.002,-9.879 -8.008,-17.888 -17.887,-17.888 z m -17.888,67.906 -166.87,0 0,-32.13 34.496,0 c 9.879,0 17.888,-8.008 17.888,-17.888 l 0,-149.703 c 0,-9.879 -8.009,-17.888 -17.888,-17.888 l -44.199,0 0,-20.176 123.318,0 0,187.768 c 0,9.88 8.009,17.888 17.888,17.888 l 35.368,0 0,32.13 -10e-4,0 z"
   id="path13"
   inkscape:connector-curvature="0" />
		</g>
	</g>
</g>
<g
   id="g15"
   transform="translate(-1.9073488e-6,-10e-4)">
</g>
<g
   id="g17"
   transform="translate(-1.9073488e-6,-10e-4)">
</g>
<g
   id="g19"
   transform="translate(-1.9073488e-6,-10e-4)">
</g>
<g
   id="g21"
   transform="translate(-1.9073488e-6,-10e-4)">
</g>
<g
   id="g23"
   transform="translate(-1.9073488e-6,-10e-4)">
</g>
<g
   id="g25"
   transform="translate(-1.9073488e-6,-10e-4)">
</g>
<g
   id="g27"
   transform="translate(-1.9073488e-6,-10e-4)">
</g>
<g
   id="g29"
   transform="translate(-1.9073488e-6,-10e-4)">
</g>
<g
   id="g31"
   transform="translate(-1.9073488e-6,-10e-4)">
</g>
<g
   id="g33"
   transform="translate(-1.9073488e-6,-10e-4)">
</g>
<g
   id="g35"
   transform="translate(-1.9073488e-6,-10e-4)">
</g>
<g
   id="g37"
   transform="translate(-1.9073488e-6,-10e-4)">
</g>
<g
   id="g39"
   transform="translate(-1.9073488e-6,-10e-4)">
</g>
<g
   id="g41"
   transform="translate(-1.9073488e-6,-10e-4)">
</g>
<g
   id="g43"
   transform="translate(-1.9073488e-6,-10e-4)">
</g>
</svg>