<?xml version="1.0" encoding="UTF-8" standalone="no"?>
<!-- Generator: Adobe Illustrator 16.0.0, SVG Export Plug-In . SVG Version: 6.00 Build 0)  -->

<svg
   xmlns:dc="http://purl.org/dc/elements/1.1/"
   xmlns:cc="http://creativecommons.org/ns#"
   xmlns:rdf="http://www.w3.org/1999/02/22-rdf-syntax-ns#"
   xmlns:svg="http://www.w3.org/2000/svg"
   xmlns="http://www.w3.org/2000/svg"
   xmlns:sodipodi="http://sodipodi.sourceforge.net/DTD/sodipodi-0.dtd"
   xmlns:inkscape="http://www.inkscape.org/namespaces/inkscape"
   version="1.1"
   id="Capa_1"
   x="0px"
   y="0px"
   width="124.35944"
   height="110.97285"
   viewBox="0 0 124.35943 110.97285"
   xml:space="preserve"
   inkscape:version="0.91 r13725"
   sodipodi:docname="letters6.svg"><metadata
   id="metadata51"><rdf:RDF><cc:Work
       rdf:about=""><dc:format>image/svg+xml</dc:format><dc:type
         rdf:resource="http://purl.org/dc/dcmitype/StillImage" /><dc:title></dc:title></cc:Work></rdf:RDF></metadata><defs
   id="defs49" /><sodipodi:namedview
   pagecolor="#ffffff"
   bordercolor="#666666"
   borderopacity="1"
   objecttolerance="10"
   gridtolerance="10"
   guidetolerance="10"
   inkscape:pageopacity="0"
   inkscape:pageshadow="2"
   inkscape:window-width="787"
   inkscape:window-height="666"
   id="namedview47"
   showgrid="false"
   fit-margin-top="0"
   fit-margin-left="0"
   fit-margin-right="0"
   fit-margin-bottom="0"
   inkscape:zoom="5.1544141"
   inkscape:cx="60.91866"
   inkscape:cy="48.053009"
   inkscape:window-x="0"
   inkscape:window-y="0"
   inkscape:window-maximized="0"
   inkscape:current-layer="Capa_1" />
<g
   id="g3"
   transform="scale(2.7161017,2.4237288)">
	<g
   id="g5">
		<path
   d="M 18.076,0 3.815,0 C 1.708,0 0,1.708 0,3.815 l 0,14.261 c 0,2.107 1.708,3.815 3.815,3.815 l 14.261,0 c 2.107,0 3.815,-1.708 3.815,-3.815 l 0,-14.261 C 21.892,1.708 20.184,0 18.076,0 Z m -5.325,15.5 -3.895,0 c -0.47,0 -0.844,-0.365 -0.844,-0.835 l 0,-7.09 c 0,-0.562 0.464,-1.017 1.025,-1.017 0.561,0 1.025,0.456 1.025,1.017 l 0,6.039 c 0,0.111 0.066,0.217 0.177,0.217 l 2.51,0 c 0.47,0 0.851,0.365 0.851,0.835 0.002,0.47 -0.379,0.834 -0.849,0.834 z"
   id="path7"
   inkscape:connector-curvature="0" />
		<path
   d="m 18.076,23.895 -14.261,0 C 1.708,23.895 0,25.604 0,27.71 l 0,14.261 c 0,2.107 1.708,3.815 3.815,3.815 l 14.261,0 c 2.107,0 3.815,-1.708 3.815,-3.815 l 0,-14.261 c 0.001,-2.106 -1.707,-3.815 -3.815,-3.815 z m -3.52,7.793 -2.338,6.935 c -0.138,0.41 -0.522,0.678 -0.955,0.678 l -0.907,0 c -0.438,0 -0.826,-0.274 -0.959,-0.692 l -2.209,-6.89 c -0.102,-0.317 -0.046,-0.663 0.151,-0.933 0.197,-0.27 0.511,-0.428 0.845,-0.428 0.466,0 0.875,0.309 1.004,0.757 l 0.872,3.03 c 0.306,1.062 0.585,2.104 0.798,3.2 l 0.04,0 c 0.226,-1.049 0.505,-2.137 0.811,-3.161 l 0.928,-3.106 c 0.127,-0.427 0.52,-0.72 0.965,-0.72 0.324,0 0.629,0.158 0.818,0.42 0.189,0.263 0.24,0.602 0.136,0.91 z"
   id="path9"
   inkscape:connector-curvature="0" />
		<path
   d="M 41.971,0 27.71,0 c -2.106,0 -3.815,1.708 -3.815,3.815 l 0,14.261 c 0,2.107 1.709,3.815 3.815,3.815 l 14.261,0 c 2.107,0 3.815,-1.708 3.815,-3.815 l 0,-14.261 C 45.786,1.708 44.078,0 41.971,0 Z m -6.789,15.428 c -2.574,0 -4.08,-1.943 -4.08,-4.415 0,-2.6 1.66,-4.543 4.222,-4.543 2.663,0 4.118,1.995 4.118,4.389 -10e-4,2.844 -1.726,4.569 -4.26,4.569 z"
   id="path11"
   inkscape:connector-curvature="0" />
		<path
   d="m 35.271,8.027 c -1.326,0 -2.099,1.261 -2.099,2.947 0,1.699 0.798,2.896 2.111,2.896 1.325,0 2.085,-1.261 2.085,-2.947 10e-4,-1.557 -0.746,-2.896 -2.097,-2.896 z"
   id="path13"
   inkscape:connector-curvature="0" />
		<path
   d="m 41.971,23.895 -14.261,0 c -2.106,0 -3.815,1.709 -3.815,3.815 l 0,14.261 c 0,2.107 1.709,3.815 3.815,3.815 l 14.261,0 c 2.107,0 3.815,-1.708 3.815,-3.815 l 0,-14.261 c 0,-2.106 -1.708,-3.815 -3.815,-3.815 z m -4.89,15.405 -4.054,0 c -0.459,0 -0.834,-0.354 -0.834,-0.813 l 0,-7.297 c 0,-0.459 0.375,-0.809 0.834,-0.809 l 3.867,0 c 0.459,0 0.832,0.352 0.832,0.811 0,0.459 -0.373,0.812 -0.832,0.812 l -2.649,0 0,1.86 2.458,0 c 0.455,0 0.824,0.379 0.824,0.834 0,0.455 -0.369,0.834 -0.824,0.834 l -2.458,0 0,2.146 2.836,0 c 0.459,0 0.831,0.353 0.831,0.812 -10e-4,0.458 -0.372,0.81 -0.831,0.81 z"
   id="path15"
   inkscape:connector-curvature="0" />
	</g>
</g>
<g
   id="g17"
   transform="translate(38.02566,25.997136)">
</g>
<g
   id="g19"
   transform="translate(38.02566,25.997136)">
</g>
<g
   id="g21"
   transform="translate(38.02566,25.997136)">
</g>
<g
   id="g23"
   transform="translate(38.02566,25.997136)">
</g>
<g
   id="g25"
   transform="translate(38.02566,25.997136)">
</g>
<g
   id="g27"
   transform="translate(38.02566,25.997136)">
</g>
<g
   id="g29"
   transform="translate(38.02566,25.997136)">
</g>
<g
   id="g31"
   transform="translate(38.02566,25.997136)">
</g>
<g
   id="g33"
   transform="translate(38.02566,25.997136)">
</g>
<g
   id="g35"
   transform="translate(38.02566,25.997136)">
</g>
<g
   id="g37"
   transform="translate(38.02566,25.997136)">
</g>
<g
   id="g39"
   transform="translate(38.02566,25.997136)">
</g>
<g
   id="g41"
   transform="translate(38.02566,25.997136)">
</g>
<g
   id="g43"
   transform="translate(38.02566,25.997136)">
</g>
<g
   id="g45"
   transform="translate(38.02566,25.997136)">
</g>
</svg>