<?xml version="1.0" encoding="UTF-8" standalone="no"?>
<!-- Generator: Adobe Illustrator 18.0.0, SVG Export Plug-In . SVG Version: 6.00 Build 0)  -->

<svg
   xmlns:dc="http://purl.org/dc/elements/1.1/"
   xmlns:cc="http://creativecommons.org/ns#"
   xmlns:rdf="http://www.w3.org/1999/02/22-rdf-syntax-ns#"
   xmlns:svg="http://www.w3.org/2000/svg"
   xmlns="http://www.w3.org/2000/svg"
   xmlns:sodipodi="http://sodipodi.sourceforge.net/DTD/sodipodi-0.dtd"
   xmlns:inkscape="http://www.inkscape.org/namespaces/inkscape"
   version="1.1"
   id="Capa_1"
   x="0px"
   y="0px"
   viewBox="0 0 120.34832 87.116392"
   xml:space="preserve"
   inkscape:version="0.91 r13725"
   sodipodi:docname="picture64.svg"
   width="120.34832"
   height="87.116394"><metadata
   id="metadata43"><rdf:RDF><cc:Work
       rdf:about=""><dc:format>image/svg+xml</dc:format><dc:type
         rdf:resource="http://purl.org/dc/dcmitype/StillImage" /><dc:title></dc:title></cc:Work></rdf:RDF></metadata><defs
   id="defs41" /><sodipodi:namedview
   pagecolor="#ffffff"
   bordercolor="#666666"
   borderopacity="1"
   objecttolerance="10"
   gridtolerance="10"
   guidetolerance="10"
   inkscape:pageopacity="0"
   inkscape:pageshadow="2"
   inkscape:window-width="640"
   inkscape:window-height="480"
   id="namedview39"
   showgrid="false"
   fit-margin-top="0"
   fit-margin-left="0"
   fit-margin-right="0"
   fit-margin-bottom="0"
   inkscape:zoom="0.74782943"
   inkscape:cx="16.04644"
   inkscape:cy="34.86639"
   inkscape:window-x="0"
   inkscape:window-y="0"
   inkscape:window-maximized="0"
   inkscape:current-layer="Capa_1" />
<g
   id="g3"
   transform="matrix(0.38135597,0,0,0.3499803,0,-11.665193)">
	<path
   d="M 310.58,33.331 5,33.331 c -2.761,0 -5,2.238 -5,5 l 0,238.918 c 0,2.762 2.239,5 5,5 l 305.58,0 c 2.763,0 5,-2.238 5,-5 l 0,-238.918 c 0,-2.762 -2.237,-5 -5,-5 z m -25,209.055 -68.766,-71.214 c -0.76,-0.785 -2.003,-0.836 -2.823,-0.114 l -47.695,41.979 -60.962,-75.061 c -0.396,-0.49 -0.975,-0.77 -1.63,-0.756 -0.631,0.013 -1.22,0.316 -1.597,0.822 L 30,234.797 30,63.331 l 255.58,0 0,179.055 z"
   id="path5"
   inkscape:connector-curvature="0" />
	<path
   d="m 210.059,135.555 c 13.538,0 24.529,-10.982 24.529,-24.531 0,-13.545 -10.991,-24.533 -24.529,-24.533 -13.549,0 -24.528,10.988 -24.528,24.533 0,13.548 10.98,24.531 24.528,24.531 z"
   id="path7"
   inkscape:connector-curvature="0" />
</g>
<g
   id="g9"
   transform="translate(-141.74356,-159.02812)">
</g>
<g
   id="g11"
   transform="translate(-141.74356,-159.02812)">
</g>
<g
   id="g13"
   transform="translate(-141.74356,-159.02812)">
</g>
<g
   id="g15"
   transform="translate(-141.74356,-159.02812)">
</g>
<g
   id="g17"
   transform="translate(-141.74356,-159.02812)">
</g>
<g
   id="g19"
   transform="translate(-141.74356,-159.02812)">
</g>
<g
   id="g21"
   transform="translate(-141.74356,-159.02812)">
</g>
<g
   id="g23"
   transform="translate(-141.74356,-159.02812)">
</g>
<g
   id="g25"
   transform="translate(-141.74356,-159.02812)">
</g>
<g
   id="g27"
   transform="translate(-141.74356,-159.02812)">
</g>
<g
   id="g29"
   transform="translate(-141.74356,-159.02812)">
</g>
<g
   id="g31"
   transform="translate(-141.74356,-159.02812)">
</g>
<g
   id="g33"
   transform="translate(-141.74356,-159.02812)">
</g>
<g
   id="g35"
   transform="translate(-141.74356,-159.02812)">
</g>
<g
   id="g37"
   transform="translate(-141.74356,-159.02812)">
</g>
</svg>