<?xml version="1.0" encoding="UTF-8" standalone="no"?>
<!-- Generator: Adobe Illustrator 18.1.1, SVG Export Plug-In . SVG Version: 6.00 Build 0)  -->

<svg
   xmlns:dc="http://purl.org/dc/elements/1.1/"
   xmlns:cc="http://creativecommons.org/ns#"
   xmlns:rdf="http://www.w3.org/1999/02/22-rdf-syntax-ns#"
   xmlns:svg="http://www.w3.org/2000/svg"
   xmlns="http://www.w3.org/2000/svg"
   xmlns:sodipodi="http://sodipodi.sourceforge.net/DTD/sodipodi-0.dtd"
   xmlns:inkscape="http://www.inkscape.org/namespaces/inkscape"
   version="1.1"
   id="Capa_1"
   x="0px"
   y="0px"
   viewBox="0 0 47.999999 47.999999"
   xml:space="preserve"
   inkscape:version="0.91 r"
   sodipodi:docname="plugin1.svg"
   width="48"
   height="48"><metadata
     id="metadata41"><rdf:RDF><cc:Work
         rdf:about=""><dc:format>image/svg+xml</dc:format><dc:type
           rdf:resource="http://purl.org/dc/dcmitype/StillImage" /><dc:title></dc:title></cc:Work></rdf:RDF></metadata><defs
     id="defs39" /><sodipodi:namedview
     pagecolor="#ffffff"
     bordercolor="#666666"
     borderopacity="1"
     objecttolerance="10"
     gridtolerance="10"
     guidetolerance="10"
     inkscape:pageopacity="0"
     inkscape:pageshadow="2"
     inkscape:window-width="1920"
     inkscape:window-height="1004"
     id="namedview37"
     showgrid="false"
     inkscape:snap-grids="false"
     inkscape:zoom="0.5703321"
     inkscape:cx="353.73599"
     inkscape:cy="-266.02458"
     inkscape:window-x="0"
     inkscape:window-y="24"
     inkscape:window-maximized="1"
     inkscape:current-layer="Capa_1"
     fit-margin-top="0"
     fit-margin-left="0"
     fit-margin-right="0"
     fit-margin-bottom="0" /><g
     id="g3"
     transform="matrix(0.24008845,0,0,0.24432109,-0.8771612,0.0807468)"
     style="fill:#ffffff"><path
       style="fill:#ffffff"
       d="m 169.485,66.051 c 1.124,-0.458 2.702,-0.966 3.969,-1.374 4.577,-1.474 10.293,-3.307 14.262,-7.283 l 1.174,-1.249 0,-0.079 c 3.93,-4.502 6.059,-10.2 6.07,-16.234 0,-6.607 -2.584,-12.823 -7.244,-17.49 -4.695,-4.681 -10.912,-7.258 -17.526,-7.258 -6.449,0 -12.53,2.459 -17.175,6.932 l -0.358,0.34 c -3.951,3.951 -5.891,9.43 -7.444,13.829 -0.462,1.31 -1.041,2.945 -1.546,4.051 -0.054,-0.054 -0.115,-0.107 -0.168,-0.165 L 103.438,0 61.333,42.119 c -0.884,0.884 -3.55,3.557 -2.752,7.079 0.852,3.761 4.685,5.118 8.74,6.553 2.942,1.041 6.249,2.208 8.382,4.109 l 0.397,0.39 c 2.487,2.498 3.865,5.816 3.865,9.341 0,3.514 -1.378,6.818 -3.876,9.312 -4.967,4.985 -13.653,4.975 -18.653,-0.004 l -0.419,-0.408 c -1.818,-2.101 -2.899,-5.483 -3.865,-8.489 -1.364,-4.295 -2.917,-9.158 -7.687,-9.158 -1.922,0 -3.794,0.938 -5.723,2.863 L 0.002,103.45 103.438,206.897 140.511,169.82 c 0.984,-0.981 3.965,-3.962 3.106,-7.759 -0.923,-4.083 -5.125,-5.562 -9.989,-7.283 -3.822,-1.356 -8.149,-2.881 -10.847,-5.579 -6.488,-6.499 -6.488,-17.075 0,-23.567 3.153,-3.153 7.344,-4.882 11.785,-4.882 4.452,0 8.643,1.729 11.782,4.882 l 0.612,0.565 c 2.258,2.641 3.579,6.764 4.746,10.436 1.639,5.132 3.339,10.432 8.464,10.432 2.781,0 4.924,-1.822 6.302,-3.192 l 40.423,-40.43 -37.41,-37.392 z m -8.703,72.071 c -0.462,-1.124 -0.956,-2.688 -1.364,-3.951 -1.471,-4.588 -3.289,-10.293 -7.269,-14.272 l -1.399,-1.317 -0.093,0.007 c -4.484,-3.84 -10.121,-5.934 -16.087,-5.934 -6.607,0 -12.823,2.577 -17.511,7.254 -9.649,9.652 -9.649,25.363 0.043,35.048 3.958,3.958 9.434,5.891 13.832,7.444 1.292,0.465 2.917,1.034 4.023,1.535 -0.054,0.054 -0.104,0.104 -0.157,0.165 L 103.439,195.455 11.447,103.45 44.698,70.195 c 0.265,0.737 0.526,1.568 0.755,2.273 1.238,3.887 2.784,8.725 6.216,12.154 l 1.177,1.127 0.093,0 c 3.854,3.303 8.707,5.107 13.843,5.107 5.683,0 11.03,-2.215 15.031,-6.234 4.023,-4.008 6.249,-9.348 6.249,-15.028 0,-5.415 -2.004,-10.522 -5.669,-14.469 L 81.802,54.488 C 78.388,51.085 73.757,49.438 70.02,48.121 69.286,47.86 68.402,47.548 67.647,47.251 l 35.789,-35.803 34.343,34.343 c 1.399,1.396 3.582,3.25 6.406,3.25 5.075,0 6.904,-5.164 8.664,-10.16 1.303,-3.69 2.774,-7.848 5.264,-10.525 l 0.315,-0.304 c 3.142,-3.146 7.322,-4.874 11.764,-4.874 4.452,0 8.643,1.736 11.803,4.896 3.142,3.139 4.874,7.315 4.874,11.764 0,4.452 -1.732,8.636 -4.874,11.782 l -0.523,0.544 c -2.634,2.294 -6.793,3.629 -10.493,4.817 -4.978,1.6 -9.284,2.981 -10.271,7.061 -0.913,3.772 2.058,6.739 3.038,7.712 l 31.716,31.698 -34.68,34.67 z"
       id="path5"
       inkscape:connector-curvature="0" /></g><g
     id="g7"
     transform="translate(-50.644737,-97.981448)" /><g
     id="g9"
     transform="translate(-50.644737,-97.981448)" /><g
     id="g11"
     transform="translate(-50.644737,-97.981448)" /><g
     id="g13"
     transform="translate(-50.644737,-97.981448)" /><g
     id="g15"
     transform="translate(-50.644737,-97.981448)" /><g
     id="g17"
     transform="translate(-50.644737,-97.981448)" /><g
     id="g19"
     transform="translate(-50.644737,-97.981448)" /><g
     id="g21"
     transform="translate(-50.644737,-97.981448)" /><g
     id="g23"
     transform="translate(-50.644737,-97.981448)" /><g
     id="g25"
     transform="translate(-50.644737,-97.981448)" /><g
     id="g27"
     transform="translate(-50.644737,-97.981448)" /><g
     id="g29"
     transform="translate(-50.644737,-97.981448)" /><g
     id="g31"
     transform="translate(-50.644737,-97.981448)" /><g
     id="g33"
     transform="translate(-50.644737,-97.981448)" /><g
     id="g35"
     transform="translate(-50.644737,-97.981448)" /></svg>