<?xml version="1.0" encoding="UTF-8" standalone="no"?>
<!-- Generator: Adobe Illustrator 18.0.0, SVG Export Plug-In . SVG Version: 6.00 Build 0)  -->

<svg
   xmlns:dc="http://purl.org/dc/elements/1.1/"
   xmlns:cc="http://creativecommons.org/ns#"
   xmlns:rdf="http://www.w3.org/1999/02/22-rdf-syntax-ns#"
   xmlns:svg="http://www.w3.org/2000/svg"
   xmlns="http://www.w3.org/2000/svg"
   xmlns:sodipodi="http://sodipodi.sourceforge.net/DTD/sodipodi-0.dtd"
   xmlns:inkscape="http://www.inkscape.org/namespaces/inkscape"
   version="1.1"
   id="Capa_1"
   x="0px"
   y="0px"
   viewBox="0 0 148.06179 112.07539"
   xml:space="preserve"
   inkscape:version="0.91 r13725"
   sodipodi:docname="poker8.svg"
   width="148.06178"
   height="112.07539"><metadata
   id="metadata55"><rdf:RDF><cc:Work
       rdf:about=""><dc:format>image/svg+xml</dc:format><dc:type
         rdf:resource="http://purl.org/dc/dcmitype/StillImage" /><dc:title></dc:title></cc:Work></rdf:RDF></metadata><defs
   id="defs53" /><sodipodi:namedview
   pagecolor="#ffffff"
   bordercolor="#666666"
   borderopacity="1"
   objecttolerance="10"
   gridtolerance="10"
   guidetolerance="10"
   inkscape:pageopacity="0"
   inkscape:pageshadow="2"
   inkscape:window-width="640"
   inkscape:window-height="480"
   id="namedview51"
   showgrid="false"
   fit-margin-top="0"
   fit-margin-left="0"
   fit-margin-right="0"
   fit-margin-bottom="0"
   inkscape:zoom="0.49303691"
   inkscape:cx="239.33244"
   inkscape:cy="-51.458021"
   inkscape:window-x="0"
   inkscape:window-y="0"
   inkscape:window-maximized="0"
   inkscape:current-layer="Capa_1" />
<g
   id="g3"
   transform="matrix(0.30932181,0,0,0.34266545,-1.7203934e-4,-25.97389)">
	<path
   d="m 477.299,192.734 c -2.606,-9.219 -8.648,-16.876 -17.015,-21.557 l -42.367,-23.712 c -0.312,3.215 -0.882,6.423 -1.803,9.585 l -6.533,22.386 35.092,19.638 c 1.172,0.655 1.654,1.646 1.857,2.356 0.203,0.711 0.305,1.803 -0.35,2.975 l -92.047,164.487 c -1.047,1.865 -2.897,2.006 -3.435,2.006 -0.663,0 -1.295,-0.163 -1.896,-0.499 l -6.798,-3.801 c -8.298,5.494 -18.094,8.773 -28.474,8.773 -4.909,0 -9.802,-0.703 -14.532,-2.084 l -21.925,-6.392 56.119,31.401 c 5.347,2.997 11.396,4.573 17.507,4.573 12.98,0 24.993,-7.032 31.331,-18.365 l 92.047,-164.488 c 4.683,-8.362 5.829,-18.057 3.222,-27.282 z"
   id="path5"
   inkscape:connector-curvature="0" />
	<path
   d="m 423.763,210.967 c 3.817,-6.813 1.383,-15.406 -5.424,-19.216 -3.918,-2.193 -8.344,-2.116 -12.192,-0.531 l -16.976,58.18 1.99,1.116 c 0.967,0.547 2.139,0.571 3.138,0.086 0.999,-0.491 1.685,-1.443 1.849,-2.545 l 1.421,-9.788 c 0.077,-0.515 0.452,-0.929 0.959,-1.053 0.5,-0.125 1.031,0.062 1.335,0.484 1.061,1.467 2.404,2.74 4.091,3.685 6.806,3.808 15.406,1.381 19.216,-5.425 3.809,-6.798 1.381,-15.416 -5.424,-19.217 -0.125,-0.069 -0.265,-0.062 -0.384,-0.133 2.569,-1.201 4.911,-2.973 6.401,-5.643 z"
   id="path7"
   inkscape:connector-curvature="0" />
	<path
   d="m 313.53,359.384 c 15.838,0 30.004,-10.63 34.437,-25.835 l 52.804,-180.964 c 2.668,-9.203 1.607,-18.898 -2.991,-27.288 -4.612,-8.421 -12.222,-14.532 -21.417,-17.202 l -70.934,-20.7 c 4.27,7.54 6.915,16.126 6.915,25.39 l 0,9.944 55.074,16.063 c 0.999,0.289 1.827,0.953 2.326,1.866 0.508,0.921 0.617,1.982 0.328,2.981 l -52.794,180.956 c -0.561,1.936 -2.304,3.196 -4.204,2.705 -2.339,-0.604 -6.887,-2.018 -6.887,-2.018 -6.159,11.677 -16.54,20.637 -29.2,24.93 l 26.49,7.727 c 3.27,0.953 6.657,1.445 10.053,1.445 z"
   id="path9"
   inkscape:connector-curvature="0" />
	<path
   d="m 312.344,191.486 0,3.683 c 0.43,0.695 0.898,1.413 1.702,1.648 l 9.561,2.786 c 1.069,0.312 2.217,0.078 3.076,-0.625 0.866,-0.702 1.327,-1.779 1.233,-2.887 l -0.842,-10.304 c -0.046,-0.569 0.273,-1.108 0.788,-1.349 0.523,-0.243 1.14,-0.133 1.546,0.265 1.608,1.6 3.606,2.833 5.948,3.512 7.665,2.24 16.508,-4.949 18.747,-12.614 4.863,-16.679 -17.405,-38.658 -17.405,-38.658 0,0 -13.8,3.074 -24.353,10.123 l 0,34.163 c 1.64,0.217 3.271,0.241 4.824,-0.094 0.561,-0.125 1.14,0.117 1.451,0.601 0.304,0.484 0.281,1.108 -0.062,1.562 l -6.214,8.188 z"
   id="path11"
   inkscape:connector-curvature="0" />
	<path
   d="m 296.358,301.281 0,-188.496 c 0,-19.786 -16.094,-35.88 -35.88,-35.88 l -65.955,0 c 5.518,6.104 9.663,13.534 11.81,21.925 l 2.559,10.045 51.586,0 c 2.155,0 3.91,1.757 3.91,3.91 l 0,188.497 c 0,2.163 -1.755,3.918 -3.91,3.918 l -7.313,0 c -1.172,5.401 -2.997,10.686 -5.902,15.581 -3.98,6.704 -9.406,12.16 -15.68,16.389 l 28.895,0 c 19.787,0 35.88,-16.102 35.88,-35.889 z"
   id="path13"
   inkscape:connector-curvature="0" />
	<polygon
   points="215.364,134.226 225.222,172.886 230.42,178.747 257.754,147.917 230.42,117.43 "
   id="polygon15" />
	<path
   d="m 237.429,285.437 -46.59,-182.65 C 186.039,83.976 166.051,72.019 147.208,76.889 L 27,107.54 c -9.147,2.334 -17.163,8.336 -21.987,16.453 -4.823,8.125 -6.252,18.03 -3.91,27.186 l 46.59,182.651 c 4.059,15.907 18.349,27.021 34.749,27.021 2.989,0 5.978,-0.382 8.883,-1.124 l 120.208,-30.651 c 9.147,-2.334 17.163,-8.336 21.988,-16.453 4.821,-8.125 6.25,-18.03 3.908,-27.186 z m -31.401,10.857 c -0.523,0.89 -1.397,1.546 -2.396,1.803 l -120.208,30.66 c -1.779,0.428 -4.121,-0.344 -4.76,-2.826 L 32.081,143.28 c -0.257,-0.999 -0.101,-2.075 0.422,-2.957 0.523,-0.89 1.397,-1.546 2.396,-1.803 0,0 88.432,-22.549 119.226,-30.285 2.43,-0.61 5.22,0.429 5.743,2.451 l 46.582,182.651 c 0.258,0.999 0.101,2.075 -0.422,2.957 z"
   id="path17"
   inkscape:connector-curvature="0" />
	<path
   d="m 129.092,177.318 c -8.445,2.155 -14.399,9.008 -15.937,17.04 -5.182,-6.322 -13.691,-9.484 -22.144,-7.329 -11.629,2.965 -17.577,19.037 -14.61,30.674 6.455,25.304 52.084,36.747 52.084,36.747 0,0 34.576,-31.9 28.121,-57.204 -2.966,-11.63 -15.875,-22.893 -27.514,-19.928 z"
   id="path19"
   inkscape:connector-curvature="0" />
</g>
<g
   id="g21"
   transform="translate(-5.561824e-4,-75.799561)">
</g>
<g
   id="g23"
   transform="translate(-5.561824e-4,-75.799561)">
</g>
<g
   id="g25"
   transform="translate(-5.561824e-4,-75.799561)">
</g>
<g
   id="g27"
   transform="translate(-5.561824e-4,-75.799561)">
</g>
<g
   id="g29"
   transform="translate(-5.561824e-4,-75.799561)">
</g>
<g
   id="g31"
   transform="translate(-5.561824e-4,-75.799561)">
</g>
<g
   id="g33"
   transform="translate(-5.561824e-4,-75.799561)">
</g>
<g
   id="g35"
   transform="translate(-5.561824e-4,-75.799561)">
</g>
<g
   id="g37"
   transform="translate(-5.561824e-4,-75.799561)">
</g>
<g
   id="g39"
   transform="translate(-5.561824e-4,-75.799561)">
</g>
<g
   id="g41"
   transform="translate(-5.561824e-4,-75.799561)">
</g>
<g
   id="g43"
   transform="translate(-5.561824e-4,-75.799561)">
</g>
<g
   id="g45"
   transform="translate(-5.561824e-4,-75.799561)">
</g>
<g
   id="g47"
   transform="translate(-5.561824e-4,-75.799561)">
</g>
<g
   id="g49"
   transform="translate(-5.561824e-4,-75.799561)">
</g>
</svg>