<?xml version="1.0" encoding="UTF-8" standalone="no"?>
<!-- Generator: Adobe Illustrator 18.0.0, SVG Export Plug-In . SVG Version: 6.00 Build 0)  -->

<svg
   xmlns:dc="http://purl.org/dc/elements/1.1/"
   xmlns:cc="http://creativecommons.org/ns#"
   xmlns:rdf="http://www.w3.org/1999/02/22-rdf-syntax-ns#"
   xmlns:svg="http://www.w3.org/2000/svg"
   xmlns="http://www.w3.org/2000/svg"
   xmlns:sodipodi="http://sodipodi.sourceforge.net/DTD/sodipodi-0.dtd"
   xmlns:inkscape="http://www.inkscape.org/namespaces/inkscape"
   version="1.1"
   id="Capa_1"
   x="0px"
   y="0px"
   viewBox="0 0 82.918428 100.17046"
   xml:space="preserve"
   inkscape:version="0.91 r13725"
   sodipodi:docname="question9.svg"
   width="82.918427"
   height="100.17046"><metadata
   id="metadata45"><rdf:RDF><cc:Work
       rdf:about=""><dc:format>image/svg+xml</dc:format><dc:type
         rdf:resource="http://purl.org/dc/dcmitype/StillImage" /><dc:title></dc:title></cc:Work></rdf:RDF></metadata><defs
   id="defs43" /><sodipodi:namedview
   pagecolor="#ffffff"
   bordercolor="#666666"
   borderopacity="1"
   objecttolerance="10"
   gridtolerance="10"
   guidetolerance="10"
   inkscape:pageopacity="0"
   inkscape:pageshadow="2"
   inkscape:window-width="1366"
   inkscape:window-height="705"
   id="namedview41"
   showgrid="false"
   fit-margin-top="0"
   fit-margin-left="0"
   fit-margin-right="0"
   fit-margin-bottom="0"
   inkscape:zoom="3.4641185"
   inkscape:cx="23.70514"
   inkscape:cy="66.106398"
   inkscape:window-x="-8"
   inkscape:window-y="-8"
   inkscape:window-maximized="1"
   inkscape:current-layer="Capa_1" />
<g
   id="g3"
   transform="matrix(1.7489074,0,0,1.4703343,-18.11581,8.1567211e-4)">
	<path
   style="fill:#1d1d1b"
   d="M 57.699,20.324 C 56.77,10.022 48.835,2.024 38.749,0.346 28.872,-1.297 18.125,2.967 12.965,11.756 c -2.505,4.266 -3.111,9.049 -2.217,13.883 0.709,3.832 1.675,9.989 5.782,11.639 0.349,0.14 0.624,-0.118 0.704,-0.425 0.161,0.26 0.597,0.349 0.846,0.024 2.418,-3.16 4.773,-6.392 6.94,-9.731 0.163,-0.251 0.162,-0.489 0.077,-0.691 0.018,-0.06 0.032,-0.124 0.028,-0.198 -0.196,-3.821 1.073,-7.556 4.713,-9.358 3.569,-1.767 8.371,-0.403 10.469,3.007 2.01,3.266 1.431,7.9 -1.261,10.603 -2.953,2.965 -6.388,2.629 -10.155,2.539 -0.737,-0.018 -1.058,1 -0.483,1.416 0.218,5.831 0.176,12.229 1.22,17.939 0.046,0.253 0.227,0.41 0.442,0.476 0.016,0.352 0.246,0.676 0.715,0.653 3.063,-0.148 6.151,-0.244 9.191,-0.674 0.006,-10e-4 0.009,-0.004 0.015,-0.005 0.008,0.024 0.013,0.049 0.021,0.073 0.368,1.108 1.87,0.636 1.709,-0.471 C 41.277,49.416 41.075,46.607 41.417,43.57 51.004,40.854 58.588,30.185 57.699,20.324 Z M 40.025,41.977 c -0.321,0.085 -0.514,0.277 -0.607,0.505 -1.954,-0.018 -3.954,0.202 -5.888,0.339 -0.185,0.013 -0.189,0.294 0,0.291 1.916,-0.037 3.902,-0.003 5.827,-0.186 0.025,0.238 0.131,0.473 0.303,0.645 -0.083,0.405 -0.15,0.817 -0.209,1.231 -1.397,-0.346 -3.159,-0.009 -4.47,0.488 -0.132,0.05 -0.082,0.241 0.059,0.212 0.787,-0.162 1.566,-0.316 2.371,-0.363 0.666,-0.039 1.333,0.034 1.995,10e-4 -0.097,0.761 -0.139,1.533 -0.151,2.305 -2.141,-0.29 -4.322,-0.308 -6.473,-0.136 -0.216,0.017 -0.223,0.349 0,0.342 2.177,-0.067 4.307,0.076 6.466,0.307 0.005,0.499 0.037,0.996 0.081,1.491 -0.02,-0.006 -0.032,-0.022 -0.055,-0.022 -1.91,0.048 -3.892,0.366 -5.781,0.655 -0.165,0.025 -0.126,0.298 0.039,0.29 1.91,-0.095 3.916,-0.186 5.799,-0.522 0.016,-0.003 0.02,-0.017 0.033,-0.022 0.057,0.519 0.131,1.035 0.238,1.542 -2.848,0.025 -5.697,0.348 -8.53,0.627 0.985,-5.371 -0.033,-11.849 -1.678,-17.079 3.977,1.432 9.109,-0.625 11.625,-3.812 2.885,-3.655 3.116,-9.281 0.199,-12.989 -6.173,-7.848 -19.806,-1.918 -17.368,7.937 -0.097,0.06 -0.187,0.142 -0.264,0.253 -2.258,3.26 -4.347,6.654 -6.345,10.078 -0.016,0.027 -0.017,0.052 -0.028,0.078 C 17.17,36.357 17.102,36.261 16.984,36.197 13.3,34.219 12.167,25.508 12.102,21.82 12.021,17.204 13.794,12.915 16.837,9.486 22.646,2.943 32.015,0.394 40.419,2.561 42.525,3.104 44.492,3.959 46.273,5.065 40.813,4.72 35.312,4.596 29.846,4.713 28.925,4.733 26.669,4.406 27.229,5.944 27.245,5.987 27.304,5.97 27.297,5.925 27.171,5.169 45.622,5.705 47.278,5.741 48.504,6.606 49.627,7.598 50.63,8.697 41.217,8.108 31.696,8.049 22.287,8.7 c -0.217,0.015 -0.222,0.347 0,0.342 9.604,-0.205 19.142,-0.221 28.743,0.134 0.004,0 0.005,-0.003 0.009,-0.003 0.531,0.619 1.012,1.278 1.465,1.957 -7.622,-0.959 -15.592,-0.731 -23.214,0.077 -0.153,0.016 -0.16,0.251 0,0.244 7.85,-0.374 15.575,-0.163 23.419,-0.016 0.47,0.731 0.891,1.495 1.264,2.285 -5.295,-0.19 -10.652,-0.103 -15.943,0.085 -0.202,0.007 -0.202,0.307 0,0.314 5.361,0.19 10.791,0.279 16.155,0.079 0.351,0.795 0.636,1.623 0.884,2.467 -3.853,0.46 -7.664,0.624 -11.549,0.509 -0.229,-0.007 -0.222,0.331 0,0.351 3.9,0.358 7.834,0.235 11.711,-0.308 0.147,0.561 0.267,1.133 0.367,1.712 -2.355,0.05 -4.716,0.236 -7.073,0.284 -0.21,0.004 -0.207,0.311 0,0.323 2.34,0.146 4.8,0.191 7.147,-0.1 0.076,0.521 0.146,1.044 0.179,1.579 0.024,0.396 0.014,0.792 0.008,1.188 -3.851,-0.16 -7.856,0.428 -11.622,1.118 -0.203,0.037 -0.159,0.391 0.049,0.364 3.857,-0.506 7.717,-0.627 11.577,-0.982 -0.034,0.779 -0.141,1.555 -0.281,2.326 -3.135,-0.308 -6.553,0.148 -9.605,0.701 -0.17,0.031 -0.133,0.319 0.041,0.304 3.143,-0.275 6.337,-0.238 9.472,-0.517 -0.291,1.385 -0.747,2.746 -1.338,4.059 -3.696,-0.251 -7.426,-0.202 -11.122,0.016 -0.188,0.011 -0.192,0.296 0,0.295 3.627,-0.012 7.238,0.109 10.861,0.232 -0.49,1.011 -1.064,1.989 -1.705,2.924 -0.036,-0.038 -0.087,-0.065 -0.157,-0.066 -2.924,-0.052 -5.824,-0.023 -8.748,-0.195 -0.218,-0.013 -0.207,0.308 0,0.333 2.828,0.342 5.783,0.537 8.63,0.317 -1.605,2.243 -3.623,4.202 -5.876,5.734 -0.004,0 -0.005,-0.004 -0.009,-0.004 -3.5,0.219 -6.994,0.288 -10.499,0.313 -0.167,10e-4 -0.165,0.25 0,0.258 3.25,0.156 6.506,0.103 9.755,-0.066 -1.657,1.027 -3.426,1.825 -5.257,2.31 z"
   id="path5"
   inkscape:connector-curvature="0" />
	<path
   style="fill:#1d1d1b"
   d="m 41.785,57.552 c -0.093,-0.224 -0.259,-0.364 -0.443,-0.438 0.038,-0.244 -0.051,-0.508 -0.29,-0.638 -2.803,-1.521 -7.151,-0.744 -10.222,-0.14 -0.294,-0.283 -0.875,-0.161 -0.915,0.372 -0.273,3.626 0.026,7.235 0.982,10.747 0.155,0.569 0.664,0.737 1.104,0.623 0.086,0.027 0.176,0.051 0.285,0.049 3.253,-0.056 7.028,0.065 10.182,-0.771 0.118,-0.031 0.209,-0.082 0.285,-0.142 0.205,-0.055 0.375,-0.212 0.353,-0.471 -0.241,-2.847 -0.219,-6.541 -1.321,-9.191 z m -9.217,8.897 c -0.69,-2.868 -1.197,-5.742 -1.468,-8.676 1.671,-0.148 3.353,-0.234 5.03,-0.192 1.408,0.035 2.861,0.326 4.253,0.134 -0.001,0.011 -0.006,0.018 -0.007,0.029 -0.042,0.644 -0.016,1.314 0.058,1.996 -2.178,-0.195 -4.515,0.064 -6.652,0.322 -0.222,0.027 -0.233,0.372 0,0.356 2.223,-0.149 4.492,-0.079 6.71,-0.262 0.072,0.534 0.173,1.074 0.287,1.615 -1.841,0.107 -3.635,0.231 -5.507,0.089 -0.174,-0.013 -0.218,0.282 -0.042,0.309 1.814,0.27 3.81,0.395 5.662,0.094 0.097,0.423 0.207,0.841 0.314,1.261 -2.389,0.189 -4.802,0.548 -7.176,0.784 -0.223,0.022 -0.234,0.359 0,0.356 2.37,-0.024 4.934,-0.135 7.321,-0.563 0.163,0.616 0.33,1.221 0.489,1.807 -2.973,-0.301 -6.309,0.203 -9.272,0.541 z"
   id="path7"
   inkscape:connector-curvature="0" />
	<path
   style="fill:#1d1d1b"
   d="m 49.03,35.802 c -4.12,-0.181 -8.385,0.242 -12.501,0.507 -0.194,0.013 -0.198,0.307 0,0.305 4.123,-0.05 8.407,0.043 12.501,-0.451 0.226,-0.027 0.238,-0.35 0,-0.361 z"
   id="path9"
   inkscape:connector-curvature="0" />
</g>
<g
   id="g11"
   transform="translate(-10.358359,5.5475281e-4)">
</g>
<g
   id="g13"
   transform="translate(-10.358359,5.5475281e-4)">
</g>
<g
   id="g15"
   transform="translate(-10.358359,5.5475281e-4)">
</g>
<g
   id="g17"
   transform="translate(-10.358359,5.5475281e-4)">
</g>
<g
   id="g19"
   transform="translate(-10.358359,5.5475281e-4)">
</g>
<g
   id="g21"
   transform="translate(-10.358359,5.5475281e-4)">
</g>
<g
   id="g23"
   transform="translate(-10.358359,5.5475281e-4)">
</g>
<g
   id="g25"
   transform="translate(-10.358359,5.5475281e-4)">
</g>
<g
   id="g27"
   transform="translate(-10.358359,5.5475281e-4)">
</g>
<g
   id="g29"
   transform="translate(-10.358359,5.5475281e-4)">
</g>
<g
   id="g31"
   transform="translate(-10.358359,5.5475281e-4)">
</g>
<g
   id="g33"
   transform="translate(-10.358359,5.5475281e-4)">
</g>
<g
   id="g35"
   transform="translate(-10.358359,5.5475281e-4)">
</g>
<g
   id="g37"
   transform="translate(-10.358359,5.5475281e-4)">
</g>
<g
   id="g39"
   transform="translate(-10.358359,5.5475281e-4)">
</g>
</svg>